<svg xmlns="http://www.w3.org/2000/svg" viewBox="0 0 700 108.29"><defs><style>.cls-1{fill:#707070;}.cls-2{fill:none;stroke-width:2px;}.cls-2,.cls-6{stroke:#707070;stroke-miterlimit:10;}.cls-3{fill:#72c594;}.cls-4,.cls-6{fill:#fff;}.cls-5{fill:#e5e6e6;}.cls-6{stroke-width:3.38px;}</style></defs><title>LearningCenter_6298_How does serverless JavaScript work_MasterFile(img1-3)_Approved</title><g id="Art"><path class="cls-1" d="M146.54,15.46h-1.78V8.08c0-.88,0-1.58.06-2.09-.12.12-.26.26-.43.41l-1.7,1.44-.9-1.17L145.05,4h1.49Z"/><path class="cls-1" d="M149.64,14.48a1.26,1.26,0,0,1,.29-.88,1.29,1.29,0,0,1,1.68,0,1.24,1.24,0,0,1,.28.86,1.25,1.25,0,0,1-.29.88,1.07,1.07,0,0,1-.83.32,1,1,0,0,1-.84-.32A1.28,1.28,0,0,1,149.64,14.48Z"/><path class="cls-1" d="M166.82,15.46H165V10.31h-5.1v5.15h-1.81V4h1.81V8.71H165V4h1.82Z"/><path class="cls-1" d="M173.47,15.46h-1.81V5.64H168.4V4h8.33V5.64h-3.26Z"/><path class="cls-1" d="M182.77,15.46H181V5.64H177.7V4H186V5.64h-3.25Z"/><path class="cls-1" d="M194.94,7.49a3.37,3.37,0,0,1-1.13,2.74,4.89,4.89,0,0,1-3.24.95h-1.15v4.28h-1.81V4h3.19a4.75,4.75,0,0,1,3.11.88A3.18,3.18,0,0,1,194.94,7.49Zm-5.52,2.12h1a3.35,3.35,0,0,0,2.05-.5,1.84,1.84,0,0,0,.65-1.56,1.79,1.79,0,0,0-.58-1.47,2.85,2.85,0,0,0-1.82-.48h-1.26Z"/><path class="cls-1" d="M204.94,6.66a4.37,4.37,0,0,1,.89.08l-.18,1.71a3.35,3.35,0,0,0-.79-.1,2.26,2.26,0,0,0-1.73.72,2.65,2.65,0,0,0-.66,1.87v4.52h-1.78V6.82h1.39l.24,1.52h.09a3.35,3.35,0,0,1,1.09-1.23A2.5,2.5,0,0,1,204.94,6.66Z"/><path class="cls-1" d="M210.79,15.61a4,4,0,0,1-3.06-1.17,4.55,4.55,0,0,1-1.1-3.24,5,5,0,0,1,1-3.33,3.47,3.47,0,0,1,2.81-1.21,3.4,3.4,0,0,1,2.62,1,4,4,0,0,1,1,2.86v1h-5.58a2.82,2.82,0,0,0,.66,1.93,2.26,2.26,0,0,0,1.75.68,6,6,0,0,0,1.38-.15,6.33,6.33,0,0,0,1.38-.48V15a5.73,5.73,0,0,1-1.32.45A7.76,7.76,0,0,1,210.79,15.61Zm-.33-7.56a1.75,1.75,0,0,0-1.36.55,2.73,2.73,0,0,0-.61,1.62h3.8a2.41,2.41,0,0,0-.5-1.62A1.66,1.66,0,0,0,210.46,8.05Z"/><path class="cls-1" d="M218.78,15.61a2.86,2.86,0,0,1-2.43-1.17,5.38,5.38,0,0,1-.88-3.29,5.44,5.44,0,0,1,.89-3.3,2.93,2.93,0,0,1,2.46-1.19,3.25,3.25,0,0,1,1.42.3,3,3,0,0,1,1.12,1h.06l.19-1.13h1.48V19.3H221.3V15.64c0-.23,0-.48,0-.73s0-.45.06-.59h-.1A2.73,2.73,0,0,1,218.78,15.61Zm.51-1.47a1.89,1.89,0,0,0,1.61-.66,3.48,3.48,0,0,0,.49-2v-.29a4,4,0,0,0-.51-2.31,1.85,1.85,0,0,0-1.62-.7,1.62,1.62,0,0,0-1.46.78,4.2,4.2,0,0,0-.5,2.24C217.3,13.16,218,14.14,219.29,14.14Z"/><path class="cls-1" d="M231.3,15.46l-.25-1.14H231a2.62,2.62,0,0,1-1.05.95,3.45,3.45,0,0,1-1.57.34,3,3,0,0,1-2.27-.78,3.3,3.3,0,0,1-.75-2.37V6.82h1.79v5.32a2.32,2.32,0,0,0,.4,1.49,1.47,1.47,0,0,0,1.23.5,1.94,1.94,0,0,0,1.65-.69,3.93,3.93,0,0,0,.53-2.32V6.82h1.79v8.64Z"/><path class="cls-1" d="M238.69,15.61a4,4,0,0,1-3.05-1.17,4.55,4.55,0,0,1-1.11-3.24,5,5,0,0,1,1-3.33,3.46,3.46,0,0,1,2.81-1.21,3.41,3.41,0,0,1,2.62,1,4,4,0,0,1,1,2.86v1h-5.58a2.82,2.82,0,0,0,.66,1.93,2.25,2.25,0,0,0,1.75.68,6.08,6.08,0,0,0,1.38-.15,6.51,6.51,0,0,0,1.38-.48V15a5.73,5.73,0,0,1-1.32.45A7.87,7.87,0,0,1,238.69,15.61Zm-.32-7.56A1.75,1.75,0,0,0,237,8.6a2.66,2.66,0,0,0-.61,1.62h3.8a2.47,2.47,0,0,0-.5-1.62A1.67,1.67,0,0,0,238.37,8.05Z"/><path class="cls-1" d="M249.49,13a2.28,2.28,0,0,1-.9,1.94,4.18,4.18,0,0,1-2.56.67,5.88,5.88,0,0,1-2.69-.52V13.5a6.45,6.45,0,0,0,2.75.71c1.1,0,1.65-.34,1.65-1a.8.8,0,0,0-.18-.54,2.45,2.45,0,0,0-.6-.46c-.28-.15-.67-.33-1.16-.53a5.29,5.29,0,0,1-2-1.15,2.2,2.2,0,0,1-.51-1.5,2,2,0,0,1,.86-1.73,4,4,0,0,1,2.36-.61,6.54,6.54,0,0,1,2.8.62l-.57,1.38a6,6,0,0,0-2.29-.58c-.94,0-1.41.28-1.41.83a.87.87,0,0,0,.37.69,8.85,8.85,0,0,0,1.6.77,7.12,7.12,0,0,1,1.51.76,2.17,2.17,0,0,1,.7.79A2.39,2.39,0,0,1,249.49,13Z"/><path class="cls-1" d="M254.59,14.13a4.21,4.21,0,0,0,1.3-.21V15.3a3.49,3.49,0,0,1-.76.22,5.07,5.07,0,0,1-1,.09c-1.69,0-2.53-.91-2.53-2.75V8.21h-1.14V7.39l1.22-.67.61-1.83h1.1V6.82h2.39V8.21h-2.39v4.62a1.34,1.34,0,0,0,.32,1A1.18,1.18,0,0,0,254.59,14.13Z"/><path class="cls-1" d="M106.84,74.08H99.33V72.69l2.86-3a22.16,22.16,0,0,0,1.67-1.9,4.48,4.48,0,0,0,.61-1,3,3,0,0,0,.19-1,1.61,1.61,0,0,0-.46-1.22,1.67,1.67,0,0,0-1.24-.44,3.21,3.21,0,0,0-1.23.24,5.65,5.65,0,0,0-1.38.87l-1-1.21a6.17,6.17,0,0,1,1.8-1.14A5.15,5.15,0,0,1,103,62.5a3.56,3.56,0,0,1,2.48.83,2.85,2.85,0,0,1,.93,2.24,4,4,0,0,1-.27,1.46,5.91,5.91,0,0,1-.82,1.44,20.26,20.26,0,0,1-1.86,2l-1.92,1.93v.07h5.26Z"/><path class="cls-1" d="M108.7,73.1a1.22,1.22,0,0,1,.29-.87,1.12,1.12,0,0,1,.84-.31,1.09,1.09,0,0,1,.84.32,1.43,1.43,0,0,1,0,1.74,1,1,0,0,1-.83.33A1.09,1.09,0,0,1,109,74,1.31,1.31,0,0,1,108.7,73.1Z"/><path class="cls-1" d="M123.53,71a2.91,2.91,0,0,1-1.06,2.39,4.57,4.57,0,0,1-3,.87,6.9,6.9,0,0,1-3.08-.6V71.87a7.91,7.91,0,0,0,1.61.58,6.69,6.69,0,0,0,1.59.21,2.48,2.48,0,0,0,1.59-.42,1.4,1.4,0,0,0,.51-1.14,1.45,1.45,0,0,0-.47-1.08A7,7,0,0,0,119.33,69a5.18,5.18,0,0,1-2.14-1.44,3.13,3.13,0,0,1-.62-2,2.75,2.75,0,0,1,1-2.25,4,4,0,0,1,2.64-.82,7.56,7.56,0,0,1,3.17.71l-.58,1.53a6.66,6.66,0,0,0-2.64-.64,2,2,0,0,0-1.33.39,1.31,1.31,0,0,0-.45,1,1.57,1.57,0,0,0,.18.77,1.78,1.78,0,0,0,.6.59,10.08,10.08,0,0,0,1.5.75,8,8,0,0,1,1.79,1,3,3,0,0,1,.83,1A3.08,3.08,0,0,1,123.53,71Z"/><path class="cls-1" d="M129.07,74.24a4,4,0,0,1-3-1.18,4.52,4.52,0,0,1-1.11-3.24,4.92,4.92,0,0,1,1-3.32,3.48,3.48,0,0,1,2.81-1.22,3.41,3.41,0,0,1,2.62,1,4.07,4.07,0,0,1,1,2.86v1h-5.58a2.85,2.85,0,0,0,.66,1.94,2.24,2.24,0,0,0,1.75.67,6.09,6.09,0,0,0,1.38-.14,7.6,7.6,0,0,0,1.38-.48v1.49a4.91,4.91,0,0,1-1.32.45A7.82,7.82,0,0,1,129.07,74.24Zm-.32-7.57a1.76,1.76,0,0,0-1.36.56,2.66,2.66,0,0,0-.61,1.62h3.8a2.43,2.43,0,0,0-.5-1.62A1.68,1.68,0,0,0,128.75,66.67Z"/><path class="cls-1" d="M138.44,65.28a4.37,4.37,0,0,1,.89.08l-.18,1.71a3.35,3.35,0,0,0-.79-.09,2.24,2.24,0,0,0-1.73.72,2.65,2.65,0,0,0-.66,1.87v4.51h-1.78V65.44h1.39l.24,1.52h.09A3.39,3.39,0,0,1,137,65.74,2.51,2.51,0,0,1,138.44,65.28Z"/><path class="cls-1" d="M143.24,74.08l-3.18-8.64h1.88l1.7,5a10,10,0,0,1,.54,2.05h.06a13.31,13.31,0,0,1,.53-2.05l1.7-5h1.9l-3.2,8.64Z"/><path class="cls-1" d="M149.49,63.15a1.06,1.06,0,0,1,.26-.76,1.18,1.18,0,0,1,1.48,0,1.06,1.06,0,0,1,.26.76,1,1,0,0,1-.26.74,1.15,1.15,0,0,1-1.48,0A1,1,0,0,1,149.49,63.15Zm1.89,10.93H149.6V65.44h1.78Z"/><path class="cls-1" d="M157.06,74.24a3.59,3.59,0,0,1-2.89-1.15,5.92,5.92,0,0,1,.05-6.63,3.72,3.72,0,0,1,3-1.18,5.44,5.44,0,0,1,2.39.51l-.54,1.48a5.26,5.26,0,0,0-1.86-.45c-1.45,0-2.18,1-2.18,3a3.61,3.61,0,0,0,.55,2.19,1.86,1.86,0,0,0,1.58.73,4.47,4.47,0,0,0,2.25-.61v1.6a3.3,3.3,0,0,1-1,.41A5.61,5.61,0,0,1,157.06,74.24Z"/><path class="cls-1" d="M164.72,74.24a4,4,0,0,1-3.06-1.18,4.51,4.51,0,0,1-1.1-3.24,5,5,0,0,1,1-3.32,3.48,3.48,0,0,1,2.81-1.22,3.4,3.4,0,0,1,2.62,1,4.07,4.07,0,0,1,1,2.86v1h-5.58a2.85,2.85,0,0,0,.66,1.94,2.25,2.25,0,0,0,1.75.67,6.09,6.09,0,0,0,1.38-.14,7.6,7.6,0,0,0,1.38-.48v1.49a4.91,4.91,0,0,1-1.32.45A7.71,7.71,0,0,1,164.72,74.24Zm-.33-7.57a1.76,1.76,0,0,0-1.36.56,2.66,2.66,0,0,0-.61,1.62h3.8a2.38,2.38,0,0,0-.5-1.62A1.68,1.68,0,0,0,164.39,66.67Z"/><path class="cls-1" d="M180.59,74.08l-1.08-4c-.13-.43-.37-1.42-.71-3h-.07c-.29,1.41-.53,2.41-.7,3l-1.11,4h-2l-2.35-8.64h1.82l1.06,4.26c.25,1,.42,2,.52,2.7h.05c0-.38.12-.82.23-1.31a10.37,10.37,0,0,1,.27-1.1l1.27-4.55h2L181,70c.07.25.17.64.28,1.17a8.21,8.21,0,0,1,.2,1.23h.07a22.83,22.83,0,0,1,.53-2.69l1.08-4.26H185l-2.37,8.64Z"/><path class="cls-1" d="M193.57,69.75a4.81,4.81,0,0,1-1,3.3,3.72,3.72,0,0,1-2.93,1.19,4,4,0,0,1-2.08-.55,3.61,3.61,0,0,1-1.39-1.57,5.51,5.51,0,0,1-.48-2.37,4.83,4.83,0,0,1,1-3.29,3.76,3.76,0,0,1,2.95-1.18,3.65,3.65,0,0,1,2.88,1.21A4.76,4.76,0,0,1,193.57,69.75Zm-6.1,0c0,2,.72,3,2.15,3s2.12-1,2.12-3-.71-3-2.14-3a1.79,1.79,0,0,0-1.62.77A4,4,0,0,0,187.47,69.75Z"/><path class="cls-1" d="M199.65,65.28a4.37,4.37,0,0,1,.89.08l-.18,1.71a3.35,3.35,0,0,0-.79-.09,2.24,2.24,0,0,0-1.73.72,2.65,2.65,0,0,0-.66,1.87v4.51H195.4V65.44h1.39L197,67h.09a3.39,3.39,0,0,1,1.09-1.22A2.51,2.51,0,0,1,199.65,65.28Z"/><path class="cls-1" d="M203.63,69.52l1-1.3,2.53-2.78h2.06l-3.37,3.71,3.58,4.93h-2.09l-2.69-3.79-1,.83v3h-1.76V61.92h1.76v5.93l-.09,1.67Z"/><path class="cls-1" d="M213.89,74.24a4,4,0,0,1-3-1.18,4.52,4.52,0,0,1-1.11-3.24,4.92,4.92,0,0,1,1-3.32,3.48,3.48,0,0,1,2.81-1.22,3.41,3.41,0,0,1,2.62,1,4.07,4.07,0,0,1,1,2.86v1h-5.58a2.85,2.85,0,0,0,.66,1.94,2.24,2.24,0,0,0,1.75.67,6.09,6.09,0,0,0,1.38-.14,7.6,7.6,0,0,0,1.38-.48v1.49a4.91,4.91,0,0,1-1.32.45A7.82,7.82,0,0,1,213.89,74.24Zm-.32-7.57a1.76,1.76,0,0,0-1.36.56,2.66,2.66,0,0,0-.61,1.62h3.8a2.38,2.38,0,0,0-.5-1.62A1.68,1.68,0,0,0,213.57,66.67Z"/><path class="cls-1" d="M223.26,65.28a4.37,4.37,0,0,1,.89.08L224,67.07a3.35,3.35,0,0,0-.79-.09,2.24,2.24,0,0,0-1.73.72,2.65,2.65,0,0,0-.66,1.87v4.51H219V65.44h1.39l.24,1.52h.09a3.39,3.39,0,0,1,1.09-1.22A2.51,2.51,0,0,1,223.26,65.28Z"/><path class="cls-1" d="M233.67,65.28a4.3,4.3,0,0,1,.89.08l-.18,1.71a3.33,3.33,0,0,0-.78-.09,2.26,2.26,0,0,0-1.74.72,2.65,2.65,0,0,0-.66,1.87v4.51h-1.78V65.44h1.39l.24,1.52h.09a3.39,3.39,0,0,1,1.09-1.22A2.56,2.56,0,0,1,233.67,65.28Z"/><path class="cls-1" d="M239.52,74.24a4,4,0,0,1-3.06-1.18,4.51,4.51,0,0,1-1.1-3.24,5,5,0,0,1,1-3.32,3.48,3.48,0,0,1,2.81-1.22,3.4,3.4,0,0,1,2.62,1,4.08,4.08,0,0,1,1,2.86v1h-5.59a3,3,0,0,0,.66,1.94,2.25,2.25,0,0,0,1.75.67,6,6,0,0,0,1.38-.14,7.6,7.6,0,0,0,1.38-.48v1.49a4.91,4.91,0,0,1-1.32.45A7.64,7.64,0,0,1,239.52,74.24Zm-.33-7.57a1.77,1.77,0,0,0-1.36.56,2.73,2.73,0,0,0-.61,1.62H241a2.33,2.33,0,0,0-.5-1.62A1.66,1.66,0,0,0,239.19,66.67Z"/><path class="cls-1" d="M250.31,71.62a2.3,2.3,0,0,1-.89,1.94,4.19,4.19,0,0,1-2.56.68,5.84,5.84,0,0,1-2.69-.53V72.13a6.39,6.39,0,0,0,2.75.7c1.09,0,1.64-.34,1.64-1a.85.85,0,0,0-.18-.55,2.11,2.11,0,0,0-.6-.45,8.33,8.33,0,0,0-1.16-.53,5.37,5.37,0,0,1-2-1.16,2.2,2.2,0,0,1-.51-1.5A2,2,0,0,1,245,65.9a4,4,0,0,1,2.36-.62,6.58,6.58,0,0,1,2.8.62l-.58,1.38a6.1,6.1,0,0,0-2.28-.57c-.94,0-1.41.27-1.41.82a.84.84,0,0,0,.37.69,7.76,7.76,0,0,0,1.6.78,7.21,7.21,0,0,1,1.51.75,2.4,2.4,0,0,1,.7.8A2.35,2.35,0,0,1,250.31,71.62Z"/><path class="cls-1" d="M256.3,74.24a2.91,2.91,0,0,1-2.47-1.18h-.11c.07.73.11,1.17.11,1.33v3.53h-1.78V65.44h1.44c0,.16.12.55.25,1.16h.09a2.76,2.76,0,0,1,2.5-1.32,2.86,2.86,0,0,1,2.44,1.18,6.58,6.58,0,0,1,0,6.59A2.93,2.93,0,0,1,256.3,74.24Zm-.43-7.46a1.83,1.83,0,0,0-1.55.64,3.38,3.38,0,0,0-.49,2v.28a4.16,4.16,0,0,0,.48,2.28,1.8,1.8,0,0,0,1.59.71,1.59,1.59,0,0,0,1.42-.78,4.19,4.19,0,0,0,.5-2.23,4,4,0,0,0-.5-2.2A1.62,1.62,0,0,0,255.87,66.78Z"/><path class="cls-1" d="M269,69.75a4.76,4.76,0,0,1-1.06,3.3A3.72,3.72,0,0,1,265,74.24a4,4,0,0,1-2.08-.55,3.53,3.53,0,0,1-1.38-1.57,5.37,5.37,0,0,1-.49-2.37,4.78,4.78,0,0,1,1.05-3.29,3.75,3.75,0,0,1,2.95-1.18A3.66,3.66,0,0,1,268,66.49,4.81,4.81,0,0,1,269,69.75Zm-6.1,0c0,2,.71,3,2.14,3s2.12-1,2.12-3-.71-3-2.13-3a1.82,1.82,0,0,0-1.63.77A4,4,0,0,0,262.93,69.75Z"/><path class="cls-1" d="M278.23,74.08h-1.79V68.77a2.35,2.35,0,0,0-.39-1.49,1.49,1.49,0,0,0-1.24-.5,1.92,1.92,0,0,0-1.65.69,3.89,3.89,0,0,0-.53,2.31v4.3h-1.78V65.44h1.4l.25,1.13h.09a2.48,2.48,0,0,1,1.07-.95,3.59,3.59,0,0,1,1.55-.34q3,0,3,3.17Z"/><path class="cls-1" d="M286.19,71.62a2.28,2.28,0,0,1-.89,1.94,4.19,4.19,0,0,1-2.56.68,5.87,5.87,0,0,1-2.69-.53V72.13a6.39,6.39,0,0,0,2.75.7c1.09,0,1.64-.34,1.64-1a.85.85,0,0,0-.18-.55,2.11,2.11,0,0,0-.6-.45,7.82,7.82,0,0,0-1.16-.53,5.46,5.46,0,0,1-2-1.16,2.2,2.2,0,0,1-.51-1.5,2,2,0,0,1,.87-1.72,4,4,0,0,1,2.36-.62,6.54,6.54,0,0,1,2.8.62l-.58,1.38a6.1,6.1,0,0,0-2.28-.57c-.94,0-1.41.27-1.41.82a.84.84,0,0,0,.37.69,7.76,7.76,0,0,0,1.6.78,7,7,0,0,1,1.51.75,2.4,2.4,0,0,1,.7.8A2.35,2.35,0,0,1,286.19,71.62Z"/><path class="cls-1" d="M291.6,74.24a4,4,0,0,1-3.05-1.18,4.52,4.52,0,0,1-1.11-3.24,5,5,0,0,1,1-3.32,3.48,3.48,0,0,1,2.81-1.22,3.4,3.4,0,0,1,2.62,1,4.07,4.07,0,0,1,1,2.86v1h-5.58a2.85,2.85,0,0,0,.66,1.94,2.25,2.25,0,0,0,1.75.67,6.09,6.09,0,0,0,1.38-.14,7.6,7.6,0,0,0,1.38-.48v1.49a4.91,4.91,0,0,1-1.32.45A7.75,7.75,0,0,1,291.6,74.24Zm-.32-7.57a1.76,1.76,0,0,0-1.36.56,2.66,2.66,0,0,0-.61,1.62h3.8a2.38,2.38,0,0,0-.5-1.62A1.68,1.68,0,0,0,291.28,66.67Z"/><path class="cls-1" d="M463,23.92h-2.22l-5.45-9.1h-.06l0,.51c.07,1,.11,1.85.11,2.66v5.93h-1.65V12.5H456l5.43,9.06h.05c0-.12,0-.56-.06-1.31s-.05-1.34-.05-1.76v-6H463Z"/><path class="cls-1" d="M473,19.59a4.76,4.76,0,0,1-1.06,3.3A3.72,3.72,0,0,1,469,24.08a3.89,3.89,0,0,1-2.08-.55A3.53,3.53,0,0,1,465.5,22a5.37,5.37,0,0,1-.49-2.37,4.75,4.75,0,0,1,1.05-3.28A3.71,3.71,0,0,1,469,15.13a3.66,3.66,0,0,1,2.88,1.2A4.81,4.81,0,0,1,473,19.59Zm-6.1,0c0,2,.71,3,2.14,3s2.12-1,2.12-3-.71-3-2.13-3a1.81,1.81,0,0,0-1.63.76A4,4,0,0,0,466.85,19.59Z"/><path class="cls-1" d="M486.09,23.92H484.3V18.61a2.37,2.37,0,0,0-.39-1.49,1.49,1.49,0,0,0-1.24-.49,2,2,0,0,0-1.65.68,3.89,3.89,0,0,0-.53,2.31v4.3h-1.78V15.28h1.4l.25,1.14h.09a2.5,2.5,0,0,1,1.07-1,3.59,3.59,0,0,1,1.55-.33q3,0,3,3.16Z"/><path class="cls-1" d="M492,24.08A4,4,0,0,1,489,22.9a4.55,4.55,0,0,1-1.1-3.23,5,5,0,0,1,1-3.33,3.49,3.49,0,0,1,2.81-1.21,3.38,3.38,0,0,1,2.63,1,4,4,0,0,1,1,2.85v1h-5.59a2.92,2.92,0,0,0,.66,1.93,2.27,2.27,0,0,0,1.75.68,6.11,6.11,0,0,0,1.39-.15,7.79,7.79,0,0,0,1.37-.48v1.49a5.06,5.06,0,0,1-1.32.46A7.69,7.69,0,0,1,492,24.08Zm-.33-7.56a1.78,1.78,0,0,0-1.36.55,2.73,2.73,0,0,0-.61,1.62h3.81a2.43,2.43,0,0,0-.5-1.62A1.68,1.68,0,0,0,491.69,16.52Z"/><path class="cls-1" d="M500.83,24.08a4,4,0,0,1-3.06-1.18,4.55,4.55,0,0,1-1.1-3.23,5,5,0,0,1,1-3.33,3.47,3.47,0,0,1,2.81-1.21,3.4,3.4,0,0,1,2.63,1,4,4,0,0,1,1,2.85v1H498.5a2.92,2.92,0,0,0,.66,1.93,2.27,2.27,0,0,0,1.75.68,6.11,6.11,0,0,0,1.39-.15,7.79,7.79,0,0,0,1.37-.48v1.49a5.06,5.06,0,0,1-1.32.46A7.69,7.69,0,0,1,500.83,24.08Zm-.33-7.56a1.76,1.76,0,0,0-1.36.55,2.73,2.73,0,0,0-.61,1.62h3.81a2.43,2.43,0,0,0-.5-1.62A1.69,1.69,0,0,0,500.5,16.52Z"/><path class="cls-1" d="M508.84,24.08a2.89,2.89,0,0,1-2.45-1.17,5.36,5.36,0,0,1-.88-3.29,5.43,5.43,0,0,1,.89-3.31,2.91,2.91,0,0,1,2.47-1.18,2.84,2.84,0,0,1,2.51,1.25h.1a10.69,10.69,0,0,1-.13-1.46V11.77h1.78V23.92h-1.39l-.31-1.13h-.08A2.84,2.84,0,0,1,508.84,24.08Zm.47-1.49a1.91,1.91,0,0,0,1.6-.63,3.41,3.41,0,0,0,.52-2.07v-.26a3.91,3.91,0,0,0-.52-2.32,1.89,1.89,0,0,0-1.61-.68,1.63,1.63,0,0,0-1.45.78,4.1,4.1,0,0,0-.51,2.24,4,4,0,0,0,.5,2.19A1.65,1.65,0,0,0,509.31,22.59Z"/><path class="cls-1" d="M522.52,22.59a4.27,4.27,0,0,0,1.31-.21v1.39a3.49,3.49,0,0,1-.76.22,5.23,5.23,0,0,1-1,.09c-1.69,0-2.53-.92-2.53-2.75V16.67h-1.15v-.81l1.23-.67.61-1.83h1.1v1.92h2.38v1.39h-2.38V21.3a1.3,1.3,0,0,0,.32,1A1.15,1.15,0,0,0,522.52,22.59Z"/><path class="cls-1" d="M532.65,19.59a4.81,4.81,0,0,1-1,3.3,3.74,3.74,0,0,1-2.94,1.19,3.86,3.86,0,0,1-2.07-.55A3.55,3.55,0,0,1,525.2,22a5.51,5.51,0,0,1-.48-2.37,4.75,4.75,0,0,1,1-3.28,3.73,3.73,0,0,1,3-1.18,3.66,3.66,0,0,1,2.88,1.2A4.76,4.76,0,0,1,532.65,19.59Zm-6.1,0c0,2,.71,3,2.14,3s2.13-1,2.13-3-.72-3-2.14-3a1.81,1.81,0,0,0-1.63.76A4,4,0,0,0,526.55,19.59Z"/><path class="cls-1" d="M429.4,46.08a3.61,3.61,0,0,1-2.9-1.15,4.9,4.9,0,0,1-1-3.28,4.9,4.9,0,0,1,1-3.35,3.79,3.79,0,0,1,3-1.17,5.47,5.47,0,0,1,2.39.5l-.54,1.48a5.3,5.3,0,0,0-1.87-.45c-1.45,0-2.17,1-2.17,3a3.68,3.68,0,0,0,.54,2.19,1.87,1.87,0,0,0,1.59.73,4.53,4.53,0,0,0,2.25-.61v1.6a3.47,3.47,0,0,1-1,.41A5.52,5.52,0,0,1,429.4,46.08Z"/><path class="cls-1" d="M440.81,41.59a4.81,4.81,0,0,1-1.05,3.3,3.75,3.75,0,0,1-2.94,1.19,3.86,3.86,0,0,1-2.07-.55A3.49,3.49,0,0,1,433.36,44a5.51,5.51,0,0,1-.49-2.37,4.75,4.75,0,0,1,1.05-3.28,3.73,3.73,0,0,1,2.95-1.18,3.66,3.66,0,0,1,2.88,1.2A4.81,4.81,0,0,1,440.81,41.59Zm-6.1,0c0,2,.71,3,2.14,3s2.12-1,2.12-3-.71-3-2.13-3a1.81,1.81,0,0,0-1.63.76A4,4,0,0,0,434.71,41.59Z"/><path class="cls-1" d="M449.7,45.92h-1.79V40.59a2.5,2.5,0,0,0-.36-1.48,1.36,1.36,0,0,0-1.14-.48,1.71,1.71,0,0,0-1.51.69,4.15,4.15,0,0,0-.48,2.3v4.3h-1.78V37.28H444l.25,1.14h.09a2.34,2.34,0,0,1,1-1,3.23,3.23,0,0,1,1.46-.33,2.52,2.52,0,0,1,2.56,1.36h.12a2.53,2.53,0,0,1,1.05-1,3.21,3.21,0,0,1,1.54-.36,2.77,2.77,0,0,1,2.19.78,3.5,3.5,0,0,1,.69,2.38v5.63h-1.78V40.59a2.5,2.5,0,0,0-.37-1.48,1.36,1.36,0,0,0-1.14-.48,1.76,1.76,0,0,0-1.52.66,3.54,3.54,0,0,0-.48,2.05Z"/><path class="cls-1" d="M464.27,45.92h-1.78V40.59a2.5,2.5,0,0,0-.37-1.48,1.32,1.32,0,0,0-1.13-.48,1.74,1.74,0,0,0-1.52.69,4.15,4.15,0,0,0-.48,2.3v4.3h-1.78V37.28h1.4l.25,1.14H459a2.34,2.34,0,0,1,1-1,3.23,3.23,0,0,1,1.46-.33A2.52,2.52,0,0,1,464,38.49h.12a2.53,2.53,0,0,1,1-1,3.21,3.21,0,0,1,1.54-.36,2.78,2.78,0,0,1,2.19.78,3.5,3.5,0,0,1,.68,2.38v5.63h-1.78V40.59a2.5,2.5,0,0,0-.36-1.48,1.36,1.36,0,0,0-1.14-.48,1.74,1.74,0,0,0-1.52.66,3.54,3.54,0,0,0-.49,2.05Z"/><path class="cls-1" d="M477.7,45.92l-.25-1.13h-.09a2.58,2.58,0,0,1-1.06,1,3.57,3.57,0,0,1-1.56.34,3,3,0,0,1-2.28-.78,3.3,3.3,0,0,1-.75-2.37V37.28h1.8v5.33a2.39,2.39,0,0,0,.39,1.49,1.5,1.5,0,0,0,1.24.49,1.94,1.94,0,0,0,1.65-.69,3.9,3.9,0,0,0,.52-2.31V37.28h1.79v8.64Z"/><path class="cls-1" d="M488.75,45.92H487V40.61a2.37,2.37,0,0,0-.39-1.49,1.49,1.49,0,0,0-1.24-.49,1.94,1.94,0,0,0-1.65.68,3.89,3.89,0,0,0-.53,2.31v4.3h-1.78V37.28h1.4l.25,1.14h.09a2.5,2.5,0,0,1,1.07-1,3.59,3.59,0,0,1,1.55-.33q3,0,3,3.16Z"/><path class="cls-1" d="M490.84,35a1,1,0,0,1,.26-.75,1.15,1.15,0,0,1,1.48,0,1.2,1.2,0,0,1,0,1.49,1.15,1.15,0,0,1-1.48,0A1,1,0,0,1,490.84,35Zm1.89,10.93H491V37.28h1.78Z"/><path class="cls-1" d="M498.41,46.08a3.59,3.59,0,0,1-2.89-1.15,4.85,4.85,0,0,1-1-3.28,4.9,4.9,0,0,1,1-3.35,3.77,3.77,0,0,1,3-1.17,5.4,5.4,0,0,1,2.38.5l-.53,1.48a5.35,5.35,0,0,0-1.87-.45c-1.45,0-2.17,1-2.17,3a3.68,3.68,0,0,0,.54,2.19,1.87,1.87,0,0,0,1.59.73,4.53,4.53,0,0,0,2.25-.61v1.6a3.47,3.47,0,0,1-1,.41A5.55,5.55,0,0,1,498.41,46.08Z"/><path class="cls-1" d="M507.86,45.92l-.35-1.2h-.07a3.36,3.36,0,0,1-1.22,1.07,3.73,3.73,0,0,1-1.57.29A2.4,2.4,0,0,1,502,43.45a2.31,2.31,0,0,1,1-2,5.43,5.43,0,0,1,2.93-.74l1.45,0v-.46a1.8,1.8,0,0,0-.38-1.24,1.5,1.5,0,0,0-1.16-.41,3.87,3.87,0,0,0-1.23.2,8.22,8.22,0,0,0-1.14.46l-.58-1.31a6,6,0,0,1,1.5-.56,6.53,6.53,0,0,1,1.53-.19,3.59,3.59,0,0,1,2.41.71,2.89,2.89,0,0,1,.81,2.26v5.82Zm-2.65-1.25a2.15,2.15,0,0,0,1.56-.56,2,2,0,0,0,.58-1.56V41.8l-1.07,0a3.65,3.65,0,0,0-1.83.44,1.33,1.33,0,0,0-.57,1.18,1.19,1.19,0,0,0,.33.9A1.39,1.39,0,0,0,505.21,44.67Z"/><path class="cls-1" d="M514.5,44.59a4.26,4.26,0,0,0,1.3-.21v1.39A3.49,3.49,0,0,1,515,46a5.15,5.15,0,0,1-1,.09c-1.69,0-2.53-.92-2.53-2.75V38.67H510.4v-.81l1.22-.67.61-1.83h1.1v1.92h2.39v1.39h-2.39V43.3a1.34,1.34,0,0,0,.32,1A1.16,1.16,0,0,0,514.5,44.59Z"/><path class="cls-1" d="M520.86,46.08a4,4,0,0,1-3.06-1.18,4.5,4.5,0,0,1-1.1-3.23,5,5,0,0,1,1-3.33,3.47,3.47,0,0,1,2.81-1.21,3.36,3.36,0,0,1,2.62,1,4,4,0,0,1,1,2.85v1h-5.59a2.87,2.87,0,0,0,.66,1.93,2.26,2.26,0,0,0,1.75.68,6,6,0,0,0,1.38-.15A7.6,7.6,0,0,0,523.7,44v1.49a5.33,5.33,0,0,1-1.32.46A7.69,7.69,0,0,1,520.86,46.08Zm-.33-7.56a1.76,1.76,0,0,0-1.36.55,2.73,2.73,0,0,0-.61,1.62h3.8a2.38,2.38,0,0,0-.5-1.62A1.66,1.66,0,0,0,520.53,38.52Z"/><path class="cls-1" d="M536.73,45.92l-1.08-4c-.13-.43-.37-1.42-.71-3h-.07c-.29,1.4-.53,2.4-.7,3l-1.11,4h-2l-2.35-8.64h1.82l1.07,4.26q.36,1.58.51,2.7h.05c0-.38.12-.81.23-1.31a10.37,10.37,0,0,1,.27-1.1L534,37.28h1.95l1.24,4.55c.08.25.17.64.28,1.17a8.41,8.41,0,0,1,.2,1.23h.07a22.83,22.83,0,0,1,.53-2.69l1.08-4.26h1.79l-2.37,8.64Z"/><path class="cls-1" d="M542.3,35a1,1,0,0,1,.27-.75,1,1,0,0,1,.74-.27,1,1,0,0,1,.73.27,1.16,1.16,0,0,1,0,1.49,1,1,0,0,1-.73.27,1,1,0,0,1-.74-.27A1,1,0,0,1,542.3,35Zm1.89,10.93h-1.78V37.28h1.78Z"/><path class="cls-1" d="M549.66,44.59a4.16,4.16,0,0,0,1.3-.21v1.39a3.33,3.33,0,0,1-.76.22,5,5,0,0,1-1,.09c-1.69,0-2.54-.92-2.54-2.75V38.67h-1.14v-.81l1.23-.67.6-1.83h1.1v1.92h2.39v1.39h-2.39V43.3a1.3,1.3,0,0,0,.33,1A1.13,1.13,0,0,0,549.66,44.59Z"/><path class="cls-1" d="M559.77,45.92H558V40.61a2.37,2.37,0,0,0-.39-1.49,1.49,1.49,0,0,0-1.24-.49,1.94,1.94,0,0,0-1.65.69,3.89,3.89,0,0,0-.53,2.31v4.29h-1.78V33.77h1.78v3.08a15,15,0,0,1-.09,1.59h.12a2.48,2.48,0,0,1,1-1,3.15,3.15,0,0,1,1.51-.34q3,0,3,3.16Z"/><path class="cls-1" d="M462.27,67.92l-1.08-4c-.13-.43-.37-1.42-.71-3h-.07c-.3,1.4-.53,2.4-.7,3l-1.11,4h-2l-2.35-8.64h1.82l1.06,4.26c.25,1.05.42,1.95.52,2.7h0c0-.38.13-.81.24-1.31s.19-.86.26-1.1l1.28-4.55h1.95l1.24,4.55c.07.25.17.64.28,1.17a8.41,8.41,0,0,1,.2,1.23h.06c.08-.64.26-1.54.53-2.69l1.09-4.26h1.79l-2.37,8.64Z"/><path class="cls-1" d="M471.48,68.08a4,4,0,0,1-3.06-1.18,4.55,4.55,0,0,1-1.1-3.23,5,5,0,0,1,1-3.33,3.47,3.47,0,0,1,2.81-1.21,3.36,3.36,0,0,1,2.62,1,4,4,0,0,1,1,2.85v1h-5.59a2.92,2.92,0,0,0,.66,1.93,2.27,2.27,0,0,0,1.75.68,6,6,0,0,0,1.38-.15,7.6,7.6,0,0,0,1.38-.48v1.49A5.06,5.06,0,0,1,473,68,7.69,7.69,0,0,1,471.48,68.08Zm-.33-7.56a1.76,1.76,0,0,0-1.36.55,2.73,2.73,0,0,0-.61,1.62H473a2.43,2.43,0,0,0-.5-1.62A1.69,1.69,0,0,0,471.15,60.52Z"/><path class="cls-1" d="M480.87,59.13a2.89,2.89,0,0,1,2.45,1.17,5.43,5.43,0,0,1,.87,3.29,5.45,5.45,0,0,1-.88,3.31,2.94,2.94,0,0,1-2.47,1.18,2.9,2.9,0,0,1-2.47-1.18h-.12l-.32,1h-1.34V55.77h1.78v2.89c0,.21,0,.53,0,1s0,.69,0,.81h.07A2.81,2.81,0,0,1,480.87,59.13Zm-.46,1.5a1.77,1.77,0,0,0-1.55.65,3.91,3.91,0,0,0-.49,2.18v.13a4.15,4.15,0,0,0,.49,2.28,1.78,1.78,0,0,0,1.58.71,1.61,1.61,0,0,0,1.44-.77,4.3,4.3,0,0,0,.49-2.24C482.37,61.61,481.72,60.63,480.41,60.63Z"/><path class="cls-1" d="M495.61,65.46a2.26,2.26,0,0,1-.89,1.94,4.19,4.19,0,0,1-2.56.68,6,6,0,0,1-2.69-.52V66a6.39,6.39,0,0,0,2.75.7c1.09,0,1.64-.34,1.64-1a.85.85,0,0,0-.18-.55,2.31,2.31,0,0,0-.6-.45,9,9,0,0,0-1.16-.53A5.46,5.46,0,0,1,490,63a2.16,2.16,0,0,1-.51-1.5,2,2,0,0,1,.87-1.72,4,4,0,0,1,2.36-.61,6.54,6.54,0,0,1,2.8.61l-.58,1.39a6,6,0,0,0-2.28-.58c-.94,0-1.41.27-1.41.83a.81.81,0,0,0,.37.68,7.76,7.76,0,0,0,1.6.78,7.45,7.45,0,0,1,1.51.75,2.4,2.4,0,0,1,.7.8A2.35,2.35,0,0,1,495.61,65.46Z"/><path class="cls-1" d="M501,68.08a4,4,0,0,1-3-1.18,4.51,4.51,0,0,1-1.11-3.23,4.93,4.93,0,0,1,1-3.33,3.47,3.47,0,0,1,2.81-1.21,3.38,3.38,0,0,1,2.62,1,4,4,0,0,1,1,2.85v1H498.7a2.82,2.82,0,0,0,.66,1.93,2.25,2.25,0,0,0,1.75.68,6.08,6.08,0,0,0,1.38-.15,7.6,7.6,0,0,0,1.38-.48v1.49a5.33,5.33,0,0,1-1.32.46A7.87,7.87,0,0,1,501,68.08Zm-.32-7.56a1.75,1.75,0,0,0-1.36.55,2.66,2.66,0,0,0-.61,1.62h3.8a2.43,2.43,0,0,0-.5-1.62A1.67,1.67,0,0,0,500.7,60.52Z"/><path class="cls-1" d="M510.39,59.13a4.45,4.45,0,0,1,.89.07l-.18,1.72a2.9,2.9,0,0,0-.79-.1,2.24,2.24,0,0,0-1.73.72,2.65,2.65,0,0,0-.66,1.87v4.51h-1.78V59.28h1.39l.24,1.53h.09A3.35,3.35,0,0,1,509,59.58,2.5,2.5,0,0,1,510.39,59.13Z"/><path class="cls-1" d="M515.19,67.92,512,59.28h1.88l1.71,5a10.27,10.27,0,0,1,.53,2h.06a13,13,0,0,1,.53-2l1.7-5h1.9l-3.2,8.64Z"/><path class="cls-1" d="M524.93,68.08a4,4,0,0,1-3.06-1.18,4.55,4.55,0,0,1-1.1-3.23,5,5,0,0,1,1-3.33,3.49,3.49,0,0,1,2.82-1.21,3.38,3.38,0,0,1,2.62,1,4,4,0,0,1,1,2.85v1H522.6a2.88,2.88,0,0,0,.67,1.93,2.25,2.25,0,0,0,1.75.68,6.08,6.08,0,0,0,1.38-.15,7.79,7.79,0,0,0,1.37-.48v1.49a5.12,5.12,0,0,1-1.31.46A7.87,7.87,0,0,1,524.93,68.08Zm-.32-7.56a1.75,1.75,0,0,0-1.36.55,2.61,2.61,0,0,0-.61,1.62h3.8a2.43,2.43,0,0,0-.5-1.62A1.67,1.67,0,0,0,524.61,60.52Z"/><path class="cls-1" d="M534.3,59.13a4.45,4.45,0,0,1,.89.07L535,60.92a2.9,2.9,0,0,0-.79-.1,2.24,2.24,0,0,0-1.73.72,2.65,2.65,0,0,0-.66,1.87v4.51h-1.78V59.28h1.39l.24,1.53h.09a3.41,3.41,0,0,1,1.08-1.23A2.56,2.56,0,0,1,534.3,59.13Z"/><path class="cls-1" d="M618.44,103.93h-2l-1.94-6.81c-.08-.3-.18-.73-.31-1.29s-.2-1-.23-1.17c0,.34-.13.77-.25,1.3s-.22.93-.29,1.19l-1.89,6.78h-2L608,98.21l-1.5-5.7h1.9L610,99.16c.25,1.07.43,2,.54,2.83.06-.44.15-.94.26-1.48s.22-1,.31-1.33L613,92.51h1.86l1.9,6.7a25,25,0,0,1,.58,2.78,21.78,21.78,0,0,1,.56-2.84l1.63-6.64h1.89Z"/><path class="cls-1" d="M626.31,104.09a4.17,4.17,0,0,1-3.15-1.18A4.45,4.45,0,0,1,622,99.67a4.92,4.92,0,0,1,1.05-3.33,3.68,3.68,0,0,1,2.9-1.21,3.56,3.56,0,0,1,2.7,1,3.94,3.94,0,0,1,1,2.86v1h-5.76a2.86,2.86,0,0,0,.68,1.94,2.37,2.37,0,0,0,1.8.67,7.15,7.15,0,0,0,1.43-.14,8.2,8.2,0,0,0,1.42-.48v1.49a5.86,5.86,0,0,1-1.36.45A8.18,8.18,0,0,1,626.31,104.09ZM626,96.52a1.84,1.84,0,0,0-1.4.56,2.67,2.67,0,0,0-.63,1.62h3.92a2.42,2.42,0,0,0-.51-1.63A1.81,1.81,0,0,0,626,96.52Z"/><path class="cls-1" d="M636.15,95.13a3,3,0,0,1,2.52,1.17,6.41,6.41,0,0,1,0,6.6,3.31,3.31,0,0,1-5.08,0h-.13l-.33,1h-1.38V91.77h1.84v2.89c0,.22,0,.54,0,1s0,.69,0,.8h.08A2.9,2.9,0,0,1,636.15,95.13Zm-.47,1.5a1.87,1.87,0,0,0-1.6.66,3.74,3.74,0,0,0-.5,2.18v.12a4,4,0,0,0,.5,2.29,1.85,1.85,0,0,0,1.63.71,1.66,1.66,0,0,0,1.48-.78,4,4,0,0,0,.5-2.23C637.69,97.61,637,96.63,635.68,96.63Z"/><path class="cls-1" d="M652.65,100.83a2.87,2.87,0,0,1-1.11,2.39,4.75,4.75,0,0,1-3,.87,7.15,7.15,0,0,1-3.18-.61v-1.76a9,9,0,0,0,1.66.58,7.16,7.16,0,0,0,1.64.21,2.62,2.62,0,0,0,1.64-.42,1.39,1.39,0,0,0,.52-1.14,1.41,1.41,0,0,0-.48-1.08,7.24,7.24,0,0,0-2-1.06,5.24,5.24,0,0,1-2.2-1.44,3.06,3.06,0,0,1-.64-2,2.76,2.76,0,0,1,1-2.25,4.27,4.27,0,0,1,2.73-.82,8,8,0,0,1,3.26.72l-.59,1.53a7,7,0,0,0-2.72-.64,2.09,2.09,0,0,0-1.37.39,1.27,1.27,0,0,0-.47,1,1.41,1.41,0,0,0,.19.76,1.84,1.84,0,0,0,.61.6,9.56,9.56,0,0,0,1.55.74,8.49,8.49,0,0,1,1.84,1,2.83,2.83,0,0,1,.86,1A3,3,0,0,1,652.65,100.83Z"/><path class="cls-1" d="M658.52,104.09a4.21,4.21,0,0,1-3.16-1.18,4.48,4.48,0,0,1-1.13-3.24,4.92,4.92,0,0,1,1-3.33,3.66,3.66,0,0,1,2.9-1.21,3.56,3.56,0,0,1,2.7,1,4,4,0,0,1,1,2.86v1h-5.75a2.81,2.81,0,0,0,.68,1.94,2.35,2.35,0,0,0,1.8.67,7.15,7.15,0,0,0,1.43-.14,8.2,8.2,0,0,0,1.42-.48v1.49a6,6,0,0,1-1.36.45A8.25,8.25,0,0,1,658.52,104.09Zm-.34-7.57a1.84,1.84,0,0,0-1.4.56,2.67,2.67,0,0,0-.63,1.62h3.92a2.38,2.38,0,0,0-.52-1.63A1.78,1.78,0,0,0,658.18,96.52Z"/><path class="cls-1" d="M668.33,95.13a4.62,4.62,0,0,1,.92.08l-.18,1.71a3.75,3.75,0,0,0-.82-.09,2.34,2.34,0,0,0-1.78.72,2.58,2.58,0,0,0-.69,1.86v4.52H664V95.29h1.44l.24,1.52h.09a3.47,3.47,0,0,1,1.12-1.22A2.62,2.62,0,0,1,668.33,95.13Z"/><path class="cls-1" d="M673.44,103.93l-3.28-8.64h1.94l1.76,5a10.82,10.82,0,0,1,.55,2h.06a13.42,13.42,0,0,1,.54-2l1.76-5h2l-3.3,8.64Z"/><path class="cls-1" d="M683.64,104.09a4.2,4.2,0,0,1-3.15-1.18,4.45,4.45,0,0,1-1.14-3.24,4.93,4.93,0,0,1,1.06-3.33,3.66,3.66,0,0,1,2.9-1.21,3.56,3.56,0,0,1,2.7,1A4,4,0,0,1,687,99v1h-5.75a2.85,2.85,0,0,0,.67,1.94,2.38,2.38,0,0,0,1.81.67,7.22,7.22,0,0,0,1.43-.14,7.84,7.84,0,0,0,1.41-.48v1.49a5.86,5.86,0,0,1-1.36.45A8.1,8.1,0,0,1,683.64,104.09Zm-.33-7.57a1.83,1.83,0,0,0-1.4.56,2.56,2.56,0,0,0-.63,1.62h3.92a2.38,2.38,0,0,0-.52-1.63A1.78,1.78,0,0,0,683.31,96.52Z"/><path class="cls-1" d="M693.46,95.13a4.51,4.51,0,0,1,.91.08l-.18,1.71a3.59,3.59,0,0,0-.81-.09,2.34,2.34,0,0,0-1.78.72,2.58,2.58,0,0,0-.69,1.86v4.52h-1.83V95.29h1.43l.25,1.52h.09A3.47,3.47,0,0,1,692,95.59,2.62,2.62,0,0,1,693.46,95.13Z"/><path class="cls-1" d="M300.19,101a2.9,2.9,0,0,1-1.1,2.4,4.84,4.84,0,0,1-3,.86,7.25,7.25,0,0,1-3.17-.6v-1.76a8.77,8.77,0,0,0,1.66.57,7,7,0,0,0,1.64.21,2.61,2.61,0,0,0,1.63-.42,1.38,1.38,0,0,0,.53-1.13,1.43,1.43,0,0,0-.48-1.09,7.76,7.76,0,0,0-2-1.05,5.19,5.19,0,0,1-2.21-1.45,3.09,3.09,0,0,1-.64-2,2.74,2.74,0,0,1,1-2.25,4.16,4.16,0,0,1,2.72-.82,8,8,0,0,1,3.27.72l-.59,1.52a7.32,7.32,0,0,0-2.72-.64,2,2,0,0,0-1.38.4,1.3,1.3,0,0,0-.47,1,1.5,1.5,0,0,0,.19.76,2,2,0,0,0,.62.6,10.26,10.26,0,0,0,1.54.74,8.61,8.61,0,0,1,1.85,1,2.83,2.83,0,0,1,.86,1A3.11,3.11,0,0,1,300.19,101Z"/><path class="cls-1" d="M306.06,104.23a4.19,4.19,0,0,1-3.15-1.17,4.48,4.48,0,0,1-1.14-3.24,4.88,4.88,0,0,1,1.06-3.33,3.62,3.62,0,0,1,2.89-1.21,3.57,3.57,0,0,1,2.71,1,4,4,0,0,1,1,2.86v1h-5.76a2.83,2.83,0,0,0,.68,1.93,2.38,2.38,0,0,0,1.81.68,6.38,6.38,0,0,0,1.42-.15,6.61,6.61,0,0,0,1.42-.48v1.5a5.86,5.86,0,0,1-1.36.45A8.23,8.23,0,0,1,306.06,104.23Zm-.34-7.56a1.84,1.84,0,0,0-1.4.55,2.67,2.67,0,0,0-.63,1.62h3.93a2.47,2.47,0,0,0-.52-1.62A1.75,1.75,0,0,0,305.72,96.67Z"/><path class="cls-1" d="M315.88,95.28a4.51,4.51,0,0,1,.91.08l-.18,1.71a3.59,3.59,0,0,0-.81-.1,2.36,2.36,0,0,0-1.79.72,2.62,2.62,0,0,0-.68,1.87v4.52h-1.84V95.44h1.44l.24,1.52h.1a3.33,3.33,0,0,1,1.12-1.23A2.66,2.66,0,0,1,315.88,95.28Z"/><path class="cls-1" d="M321,104.08l-3.28-8.64h1.94l1.75,5a9.34,9.34,0,0,1,.55,2.05H322a13.85,13.85,0,0,1,.55-2.05l1.76-5h1.95l-3.3,8.64Z"/><path class="cls-1" d="M327.59,93.15a1,1,0,1,1,2.06,0,1,1,0,0,1-.27.73,1,1,0,0,1-.75.27,1,1,0,0,1-.77-.27A1,1,0,0,1,327.59,93.15Zm1.94,10.93H327.7V95.44h1.83Z"/><path class="cls-1" d="M335.56,104.23a3.77,3.77,0,0,1-3-1.14,5.82,5.82,0,0,1,0-6.64,4,4,0,0,1,3.08-1.17,5.69,5.69,0,0,1,2.46.51l-.55,1.47a5.63,5.63,0,0,0-1.92-.45c-1.5,0-2.24,1-2.24,3A3.58,3.58,0,0,0,334,102a1.94,1.94,0,0,0,1.64.73,4.65,4.65,0,0,0,2.32-.61v1.6a3.67,3.67,0,0,1-1,.42A6.5,6.5,0,0,1,335.56,104.23Z"/><path class="cls-1" d="M343.61,104.23a4.2,4.2,0,0,1-3.16-1.17,4.52,4.52,0,0,1-1.13-3.24,4.92,4.92,0,0,1,1.05-3.33,3.65,3.65,0,0,1,2.9-1.21,3.56,3.56,0,0,1,2.7,1,4,4,0,0,1,1,2.86v1h-5.76a2.78,2.78,0,0,0,.68,1.93,2.36,2.36,0,0,0,1.8.68,6.47,6.47,0,0,0,1.43-.15,6.8,6.8,0,0,0,1.42-.48v1.5a6,6,0,0,1-1.36.45A8.23,8.23,0,0,1,343.61,104.23Zm-.34-7.56a1.84,1.84,0,0,0-1.4.55,2.67,2.67,0,0,0-.63,1.62h3.92a2.41,2.41,0,0,0-.51-1.62A1.78,1.78,0,0,0,343.27,96.67Z"/><path class="cls-1" d="M363.94,104.08h-2L360,97.26c-.08-.29-.18-.72-.31-1.28s-.2-1-.23-1.17c-.05.33-.13.77-.25,1.3s-.21.92-.29,1.18L357,104.08h-2l-1.48-5.72L352,92.65h1.91l1.63,6.66c.25,1.07.44,2,.55,2.83.05-.44.14-.94.25-1.49s.22-1,.32-1.32l1.85-6.68h1.86l1.9,6.71a22.44,22.44,0,0,1,.58,2.78,21.88,21.88,0,0,1,.56-2.85L365,92.65h1.89Z"/><path class="cls-1" d="M375.7,99.74a4.68,4.68,0,0,1-1.09,3.3,3.85,3.85,0,0,1-3,1.19,4.17,4.17,0,0,1-2.14-.54,3.63,3.63,0,0,1-1.43-1.57,5.44,5.44,0,0,1-.5-2.38,4.68,4.68,0,0,1,1.08-3.28,3.9,3.9,0,0,1,3-1.18,3.79,3.79,0,0,1,3,1.21A4.69,4.69,0,0,1,375.7,99.74Zm-6.29,0c0,2,.74,3,2.21,3s2.19-1,2.19-3-.74-3-2.2-3a1.88,1.88,0,0,0-1.68.76A3.91,3.91,0,0,0,369.41,99.74Z"/><path class="cls-1" d="M382.12,95.28a4.62,4.62,0,0,1,.92.08l-.18,1.71a3.59,3.59,0,0,0-.81-.1,2.36,2.36,0,0,0-1.79.72,2.58,2.58,0,0,0-.68,1.87v4.52h-1.84V95.44h1.44l.24,1.52h.09a3.36,3.36,0,0,1,1.13-1.23A2.65,2.65,0,0,1,382.12,95.28Z"/><path class="cls-1" d="M386.38,99.51l1-1.29L390,95.44h2.12l-3.48,3.71,3.7,4.93h-2.16l-2.77-3.79-1,.83v3h-1.82V91.92h1.82v5.93l-.1,1.66Z"/><path class="cls-1" d="M397.13,104.23a4.2,4.2,0,0,1-3.16-1.17,4.52,4.52,0,0,1-1.13-3.24,4.92,4.92,0,0,1,1.05-3.33,3.63,3.63,0,0,1,2.9-1.21,3.56,3.56,0,0,1,2.7,1,4,4,0,0,1,1,2.86v1h-5.76a2.78,2.78,0,0,0,.68,1.93,2.36,2.36,0,0,0,1.8.68,6.47,6.47,0,0,0,1.43-.15,6.8,6.8,0,0,0,1.42-.48v1.5a6,6,0,0,1-1.36.45A8.3,8.3,0,0,1,397.13,104.23Zm-.34-7.56a1.84,1.84,0,0,0-1.4.55,2.67,2.67,0,0,0-.63,1.62h3.92a2.37,2.37,0,0,0-.52-1.62A1.74,1.74,0,0,0,396.79,96.67Z"/><path class="cls-1" d="M406.94,95.28a4.62,4.62,0,0,1,.92.08l-.18,1.71a3.75,3.75,0,0,0-.82-.1,2.34,2.34,0,0,0-1.78.72,2.59,2.59,0,0,0-.69,1.87v4.52h-1.83V95.44H404l.24,1.52h.09a3.42,3.42,0,0,1,1.12-1.23A2.68,2.68,0,0,1,406.94,95.28Z"/><path class="cls-1" d="M19,104.41H17L15,97.6c-.09-.3-.19-.73-.32-1.29s-.2-1-.22-1.17c-.05.34-.14.77-.26,1.3s-.21.93-.29,1.19L12,104.41H10L8.53,98.69,7,93H8.94l1.63,6.65a27.71,27.71,0,0,1,.55,2.83c.06-.44.14-.94.26-1.48s.21-1,.31-1.33L13.55,93H15.4l1.91,6.7a25.44,25.44,0,0,1,.57,2.78,20.47,20.47,0,0,1,.57-2.84L20.07,93H22Z"/><path class="cls-1" d="M26.85,104.56a4.19,4.19,0,0,1-3.15-1.17,4.46,4.46,0,0,1-1.14-3.24,4.88,4.88,0,0,1,1.06-3.33,3.63,3.63,0,0,1,2.9-1.21,3.56,3.56,0,0,1,2.7,1,4,4,0,0,1,1,2.86v1H24.45a2.91,2.91,0,0,0,.68,1.94,2.38,2.38,0,0,0,1.81.67,7,7,0,0,0,1.42-.14,7.93,7.93,0,0,0,1.42-.48V104a5.86,5.86,0,0,1-1.36.45A8.23,8.23,0,0,1,26.85,104.56ZM26.52,97a1.85,1.85,0,0,0-1.41.56,2.67,2.67,0,0,0-.63,1.61h3.93a2.47,2.47,0,0,0-.52-1.62A1.78,1.78,0,0,0,26.52,97Z"/><path class="cls-1" d="M36.7,95.61a3,3,0,0,1,2.52,1.17,5.3,5.3,0,0,1,.9,3.29,5.36,5.36,0,0,1-.91,3.31,3.33,3.33,0,0,1-5.09,0H34l-.33,1H32.28V92.25h1.84v2.89c0,.22,0,.53,0,1s0,.69-.05.8h.08A2.91,2.91,0,0,1,36.7,95.61Zm-.48,1.5a1.89,1.89,0,0,0-1.6.65,3.88,3.88,0,0,0-.5,2.19v.12a4.09,4.09,0,0,0,.5,2.29,1.86,1.86,0,0,0,1.63.7,1.64,1.64,0,0,0,1.48-.77,4,4,0,0,0,.51-2.23C38.24,98.09,37.56,97.11,36.22,97.11Z"/><path class="cls-1" d="M46.6,104.56a3,3,0,0,1-2.55-1.18h-.11c.08.73.11,1.18.11,1.33v3.54H42.22V95.77H43.7c0,.16.13.54.26,1.15h.09a2.9,2.9,0,0,1,2.58-1.31,3,3,0,0,1,2.52,1.17,6.47,6.47,0,0,1,0,6.6A3,3,0,0,1,46.6,104.56Zm-.45-7.45a1.92,1.92,0,0,0-1.59.64,3.3,3.3,0,0,0-.51,2v.27a4.09,4.09,0,0,0,.5,2.29,1.88,1.88,0,0,0,1.64.7,1.65,1.65,0,0,0,1.46-.78,4,4,0,0,0,.52-2.22,3.89,3.89,0,0,0-.51-2.2A1.7,1.7,0,0,0,46.15,97.11Z"/><path class="cls-1" d="M57.56,104.41l-.37-1.2h-.06a3.64,3.64,0,0,1-1.26,1.07,4,4,0,0,1-1.63.28,2.77,2.77,0,0,1-2-.68,2.57,2.57,0,0,1-.72-1.95,2.27,2.27,0,0,1,1-2,5.73,5.73,0,0,1,3-.75l1.49,0v-.46a1.72,1.72,0,0,0-.39-1.24,1.55,1.55,0,0,0-1.2-.41,4.16,4.16,0,0,0-1.27.19,10.17,10.17,0,0,0-1.17.46l-.6-1.31A6.87,6.87,0,0,1,54,95.8a7,7,0,0,1,1.58-.19,3.74,3.74,0,0,1,2.49.72,2.81,2.81,0,0,1,.84,2.26v5.82Zm-2.74-1.25a2.3,2.3,0,0,0,1.61-.56A2,2,0,0,0,57,101v-.75l-1.11,0a3.85,3.85,0,0,0-1.88.43,1.32,1.32,0,0,0-.59,1.19,1.15,1.15,0,0,0,.34.89A1.48,1.48,0,0,0,54.82,103.16Z"/><path class="cls-1" d="M68.66,95.77v1l-1.48.27a2.34,2.34,0,0,1,.34.67,2.63,2.63,0,0,1,.13.84,2.6,2.6,0,0,1-.92,2.11,3.85,3.85,0,0,1-2.54.76,4.22,4.22,0,0,1-.75-.06,1,1,0,0,0-.59.86.46.46,0,0,0,.27.44,2.41,2.41,0,0,0,1,.15h1.51a3.38,3.38,0,0,1,2.17.61,2.14,2.14,0,0,1,.75,1.76,2.57,2.57,0,0,1-1.22,2.27,6.36,6.36,0,0,1-3.5.79,4.89,4.89,0,0,1-2.69-.62,2,2,0,0,1-.93-1.78,1.9,1.9,0,0,1,.5-1.34,2.68,2.68,0,0,1,1.41-.76,1.37,1.37,0,0,1-.6-.5,1.27,1.27,0,0,1-.24-.73,1.25,1.25,0,0,1,.27-.82,3.24,3.24,0,0,1,.82-.67,2.31,2.31,0,0,1-1.09-.94,3.07,3.07,0,0,1,.47-3.71,3.74,3.74,0,0,1,2.52-.77,6.93,6.93,0,0,1,.77,0,5.42,5.42,0,0,1,.61.11Zm-6.79,10a1,1,0,0,0,.54.92,2.93,2.93,0,0,0,1.5.32,4.6,4.6,0,0,0,2.23-.43,1.3,1.3,0,0,0,.74-1.14.85.85,0,0,0-.4-.8,3.23,3.23,0,0,0-1.5-.24H63.59a1.9,1.9,0,0,0-1.25.37A1.22,1.22,0,0,0,61.87,105.75Zm.79-7.19a1.72,1.72,0,0,0,.42,1.25,1.56,1.56,0,0,0,1.2.44c1.06,0,1.59-.57,1.59-1.7a1.94,1.94,0,0,0-.39-1.3,1.5,1.5,0,0,0-1.2-.46,1.55,1.55,0,0,0-1.21.45A2,2,0,0,0,62.66,98.56Z"/><path class="cls-1" d="M73.83,104.56a4.2,4.2,0,0,1-3.16-1.17,4.5,4.5,0,0,1-1.13-3.24,4.92,4.92,0,0,1,1-3.33,3.63,3.63,0,0,1,2.9-1.21,3.56,3.56,0,0,1,2.7,1,4,4,0,0,1,1,2.86v1H71.43a2.81,2.81,0,0,0,.68,1.94,2.35,2.35,0,0,0,1.8.67,7.15,7.15,0,0,0,1.43-.14,8.2,8.2,0,0,0,1.42-.48V104a6,6,0,0,1-1.36.45A8.3,8.3,0,0,1,73.83,104.56ZM73.49,97a1.84,1.84,0,0,0-1.4.56,2.67,2.67,0,0,0-.63,1.61h3.92a2.37,2.37,0,0,0-.52-1.62A1.78,1.78,0,0,0,73.49,97Z"/><line class="cls-2" x1="106.52" y1="29.78" x2="286.23" y2="29.78"/><polygon class="cls-1" points="282.25 33.17 285.64 29.78 282.25 26.39 285.13 26.39 288.52 29.78 285.13 33.17 282.25 33.17"/><line class="cls-2" x1="108.8" y1="48.12" x2="288.52" y2="48.12"/><polygon class="cls-1" points="112.79 51.51 109.39 48.12 112.79 44.73 109.91 44.73 106.52 48.12 109.91 51.51 112.79 51.51"/><path class="cls-3" d="M329.56,61.2q0,4.3,2.86,6.24c1.9,1.29,4.7,2,8.38,2v5.91q-9.29-.09-14.37-3.67a11.63,11.63,0,0,1-5.09-10.08V48.84c0-2.93-1-5-3.08-6.27s-5-1.87-8.94-1.87v-6c4.23-.06,7.3-.73,9.19-2a6.76,6.76,0,0,0,2.83-6V13.83a11.65,11.65,0,0,1,5.28-10.17Q331.9,0,340.8,0V5.9q-11.25.25-11.24,8.39V26.74q0,9.06-10.91,10.71V38q10.91,1.63,10.91,10.71Z"/><path class="cls-3" d="M370.48,48.67q0-9.08,10.9-10.71v-.51q-10.89-1.65-10.9-10.71V14.29q0-8.13-11.24-8.39V0q8.89,0,14.18,3.62a11.65,11.65,0,0,1,5.28,10.17V26.74a6.76,6.76,0,0,0,2.83,6c1.89,1.29,5,2,9.19,2v6q-5.87,0-8.94,1.87c-2.06,1.26-3.08,3.34-3.08,6.27V61.62a11.63,11.63,0,0,1-5.09,10.08q-5.08,3.58-14.37,3.67V69.46c3.68,0,6.48-.73,8.38-2s2.86-3.37,2.86-6.24Z"/><path class="cls-3" d="M352.57,22.15v7.68h-7V22.15Zm-7,31.62V51.5a3.65,3.65,0,0,0,3.52-3.35h-3.52V40.47h7v6.7A6.78,6.78,0,0,1,345.54,53.77Z"/><rect class="cls-4" x="0.9" y="9.48" width="83.19" height="67.26"/><g id="icons"><path class="cls-1" d="M84.37,9.39a3.6,3.6,0,0,0-2.48-1H3.55A3.58,3.58,0,0,0,0,11.88V74.1a3.54,3.54,0,0,0,3.51,3.53H81.88a3.58,3.58,0,0,0,3.53-3.53V11.88A3.6,3.6,0,0,0,84.37,9.39ZM82,74.1a.22.22,0,0,1-.16.16H3.52a.26.26,0,0,1-.18-.16v-53H82ZM80.54,14.68a2,2,0,0,1-2,2h0L23.47,16.6a2,2,0,0,1,0-4H78.63a2,2,0,0,1,2,2v.09Zm-63-.09a1.36,1.36,0,1,1-1.37-1.34h0a1.36,1.36,0,0,1,1.36,1.34Zm-4,0a1.35,1.35,0,1,1-1.35-1.34,1.35,1.35,0,0,1,1.35,1.34h0ZM8.23,13.25a1.35,1.35,0,1,1-1.34,1.34,1.34,1.34,0,0,1,1.34-1.34h0Z"/></g><g id="transparency_layer" data-name="transparency layer"><rect class="cls-5" x="37.85" y="29.09" width="36.41" height="2.48"/><rect class="cls-5" x="37.85" y="33.63" width="36.41" height="2.48"/><rect class="cls-5" x="37.85" y="38.17" width="36.41" height="2.48"/><rect class="cls-5" x="37.85" y="42.71" width="30.45" height="2.48"/><rect class="cls-5" x="37.85" y="47.25" width="21.71" height="2.48"/><rect class="cls-5" x="9.98" y="53.17" width="22.78" height="1.44"/><rect class="cls-5" x="9.98" y="55.49" width="22.78" height="1.44"/><rect class="cls-5" x="9.98" y="57.81" width="22.78" height="1.44"/><rect class="cls-5" x="9.98" y="60.14" width="22.78" height="1.44"/><rect class="cls-5" x="9.98" y="29.09" width="22.91" height="20.87"/></g><rect class="cls-6" x="602.97" y="22.49" width="95.35" height="34.47" rx="0.94" ry="0.94"/><line class="cls-6" x1="650.64" y1="33.75" x2="650.64" y2="45.69"/><line class="cls-6" x1="658.95" y1="33.75" x2="658.95" y2="45.69"/><line class="cls-6" x1="667.26" y1="33.75" x2="667.26" y2="45.69"/><line class="cls-6" x1="675.57" y1="33.75" x2="675.57" y2="45.69"/><line class="cls-6" x1="617.4" y1="33.75" x2="617.4" y2="45.69"/><line class="cls-6" x1="625.71" y1="33.75" x2="625.71" y2="45.69"/><line class="cls-6" x1="634.02" y1="33.75" x2="634.02" y2="45.69"/><line class="cls-6" x1="642.33" y1="33.75" x2="642.33" y2="45.69"/><line class="cls-6" x1="683.89" y1="33.75" x2="683.89" y2="45.69"/><line class="cls-6" x1="617.91" y1="64.04" x2="683.37" y2="64.04"/></g></svg>