<svg xmlns="http://www.w3.org/2000/svg" viewBox="0 0 700 108.27"><defs><style>.cls-1{fill:#707070;}.cls-2,.cls-3{fill:none;}.cls-2,.cls-3,.cls-5{stroke:#707070;stroke-miterlimit:10;}.cls-2{stroke-width:2px;}.cls-3{stroke-width:2.03px;}.cls-4{fill:#72c594;}.cls-5,.cls-6{fill:#fff;}.cls-5{stroke-width:3.38px;}.cls-7{fill:#e5e6e6;}</style></defs><title>LearningCenter_6298_How does serverless JavaScript work_MasterFile(img1-3)_Approved</title><g id="Art"><path class="cls-1" d="M149.76,14.57h-1.67V7.66c0-.82,0-1.48.06-2l-.4.39c-.16.14-.69.59-1.6,1.34l-.83-1.09,3.05-2.47h1.39Z"/><path class="cls-1" d="M152.68,13.66a1.14,1.14,0,0,1,.27-.82,1,1,0,0,1,.78-.29,1,1,0,0,1,.79.3,1.37,1.37,0,0,1,0,1.63,1.16,1.16,0,0,1-1.57,0A1.2,1.2,0,0,1,152.68,13.66Z"/><path class="cls-1" d="M168.79,14.57h-1.71V9.75h-4.79v4.82h-1.7V3.87h1.7V8.25h4.79V3.87h1.71Z"/><path class="cls-1" d="M175,14.57h-1.7V5.37h-3V3.87h7.81v1.5H175Z"/><path class="cls-1" d="M183.74,14.57H182V5.37h-3V3.87h7.8v1.5h-3Z"/><path class="cls-1" d="M195.16,7.1a3.13,3.13,0,0,1-1.07,2.57,4.57,4.57,0,0,1-3,.9H190v4h-1.7V3.87h3a4.42,4.42,0,0,1,2.92.82A3,3,0,0,1,195.16,7.1ZM190,9.1h.9a3.19,3.19,0,0,0,1.92-.47,1.73,1.73,0,0,0,.61-1.47,1.69,1.69,0,0,0-.54-1.37,2.63,2.63,0,0,0-1.71-.46H190Z"/><path class="cls-1" d="M204.53,6.33a3.83,3.83,0,0,1,.83.07L205.2,8a3.57,3.57,0,0,0-.74-.08,2.08,2.08,0,0,0-1.62.67,2.46,2.46,0,0,0-.63,1.75v4.23h-1.67V6.47h1.31l.22,1.43h.09a3.25,3.25,0,0,1,1-1.15A2.39,2.39,0,0,1,204.53,6.33Z"/><path class="cls-1" d="M210,14.72a3.74,3.74,0,0,1-2.86-1.1,4.28,4.28,0,0,1-1-3,4.69,4.69,0,0,1,1-3.12,3.29,3.29,0,0,1,2.64-1.13,3.18,3.18,0,0,1,2.46,1,3.81,3.81,0,0,1,.9,2.68v.93h-5.24a2.72,2.72,0,0,0,.62,1.81,2.1,2.1,0,0,0,1.64.64,5.89,5.89,0,0,0,1.3-.14,6.65,6.65,0,0,0,1.29-.45v1.4a5.37,5.37,0,0,1-1.24.43A7.56,7.56,0,0,1,210,14.72Zm-.3-7.09a1.69,1.69,0,0,0-1.28.52,2.51,2.51,0,0,0-.57,1.52h3.57A2.3,2.3,0,0,0,211,8.15,1.56,1.56,0,0,0,209.71,7.63Z"/><path class="cls-1" d="M217.51,14.72a2.7,2.7,0,0,1-2.28-1.1,5.06,5.06,0,0,1-.82-3.08,5.07,5.07,0,0,1,.83-3.1,2.74,2.74,0,0,1,2.31-1.11,3,3,0,0,1,1.33.28,2.85,2.85,0,0,1,1.05.93h0l.19-1.07h1.38V18.18h-1.67V14.74c0-.21,0-.44,0-.68s0-.42,0-.55h-.09A2.54,2.54,0,0,1,217.51,14.72Zm.48-1.38a1.74,1.74,0,0,0,1.51-.62,3.27,3.27,0,0,0,.45-1.9v-.27a3.76,3.76,0,0,0-.47-2.16A1.73,1.73,0,0,0,218,7.73a1.54,1.54,0,0,0-1.37.74,3.91,3.91,0,0,0-.47,2.1C216.12,12.42,216.75,13.34,218,13.34Z"/><path class="cls-1" d="M229.26,14.57,229,13.51h-.08a2.45,2.45,0,0,1-1,.89,3.31,3.31,0,0,1-1.47.32,2.82,2.82,0,0,1-2.13-.73,3.1,3.1,0,0,1-.71-2.22V6.47h1.69v5a2.18,2.18,0,0,0,.37,1.39,1.38,1.38,0,0,0,1.16.47,1.82,1.82,0,0,0,1.54-.65,3.63,3.63,0,0,0,.5-2.17v-4h1.67v8.1Z"/><path class="cls-1" d="M236.19,14.72a3.77,3.77,0,0,1-2.87-1.1,4.27,4.27,0,0,1-1-3,4.69,4.69,0,0,1,1-3.12,3.28,3.28,0,0,1,2.63-1.13,3.18,3.18,0,0,1,2.46,1,3.81,3.81,0,0,1,.9,2.68v.93H234a2.66,2.66,0,0,0,.62,1.81,2.07,2.07,0,0,0,1.64.64,5.86,5.86,0,0,0,1.29-.14,6.65,6.65,0,0,0,1.29-.45v1.4a5.3,5.3,0,0,1-1.23.43A7.71,7.71,0,0,1,236.19,14.72Zm-.31-7.09a1.66,1.66,0,0,0-1.27.52A2.51,2.51,0,0,0,234,9.67h3.56a2.25,2.25,0,0,0-.47-1.52A1.56,1.56,0,0,0,235.88,7.63Z"/><path class="cls-1" d="M246.31,12.27a2.14,2.14,0,0,1-.84,1.82,3.9,3.9,0,0,1-2.4.63,5.51,5.51,0,0,1-2.52-.49V12.74a6,6,0,0,0,2.58.66c1,0,1.54-.32,1.54-1a.75.75,0,0,0-.17-.51,1.8,1.8,0,0,0-.56-.42,7.83,7.83,0,0,0-1.09-.5A4.86,4.86,0,0,1,241,9.92a2,2,0,0,1-.48-1.4,1.88,1.88,0,0,1,.81-1.62,3.79,3.79,0,0,1,2.21-.57,6.08,6.08,0,0,1,2.63.58l-.54,1.29a5.76,5.76,0,0,0-2.14-.54q-1.32,0-1.32.78a.77.77,0,0,0,.34.64,7.33,7.33,0,0,0,1.5.73,6.81,6.81,0,0,1,1.42.71,2.06,2.06,0,0,1,.65.74A2.25,2.25,0,0,1,246.31,12.27Z"/><path class="cls-1" d="M251.1,13.33a4,4,0,0,0,1.22-.2v1.3a3.72,3.72,0,0,1-.72.21,5.29,5.29,0,0,1-.9.08q-2.37,0-2.37-2.58V7.78h-1.08V7l1.15-.63L249,4.67h1v1.8h2.24V7.78H250v4.33a1.23,1.23,0,0,0,.3.92A1.09,1.09,0,0,0,251.1,13.33Z"/><path class="cls-1" d="M113.14,71.72h-1.4v2.34h-1.63V71.72h-4.75V70.39l4.75-7.07h1.63v7h1.4Zm-3-1.43V67.6c0-.95,0-1.74.07-2.35h-.06a8.11,8.11,0,0,1-.62,1.18l-2.58,3.86Z"/><path class="cls-1" d="M114.4,73.14a1.16,1.16,0,0,1,.27-.82,1,1,0,0,1,.78-.28,1,1,0,0,1,.79.29,1.17,1.17,0,0,1,.27.81,1.22,1.22,0,0,1-.27.83,1,1,0,0,1-.79.3,1,1,0,0,1-.78-.3A1.2,1.2,0,0,1,114.4,73.14Z"/><path class="cls-1" d="M126.81,74.06l-3-9h-.05c.08,1.33.12,2.58.12,3.74v5.21h-1.54V63.35h2.39l2.89,8.52h0l3-8.52H133V74.06h-1.63v-5.3c0-.53,0-1.22,0-2.08s.05-1.37.07-1.55h0l-3.12,8.93Z"/><path class="cls-1" d="M142.36,70a4.49,4.49,0,0,1-1,3.1,3.49,3.49,0,0,1-2.75,1.11,3.67,3.67,0,0,1-1.94-.51,3.28,3.28,0,0,1-1.3-1.47,5,5,0,0,1-.46-2.23,4.47,4.47,0,0,1,1-3.07,3.49,3.49,0,0,1,2.76-1.11,3.42,3.42,0,0,1,2.7,1.13A4.43,4.43,0,0,1,142.36,70Zm-5.72,0c0,1.87.67,2.81,2,2.81s2-.94,2-2.81-.67-2.77-2-2.77a1.72,1.72,0,0,0-1.53.71A3.81,3.81,0,0,0,136.64,70Z"/><path class="cls-1" d="M146.8,74.2a2.68,2.68,0,0,1-2.29-1.1,6.13,6.13,0,0,1,0-6.18,2.71,2.71,0,0,1,2.31-1.11A2.68,2.68,0,0,1,149.19,67h.08a10.68,10.68,0,0,1-.12-1.38v-3h1.68v11.4h-1.31L149.23,73h-.08A2.63,2.63,0,0,1,146.8,74.2Zm.45-1.39a1.8,1.8,0,0,0,1.5-.59,3.26,3.26,0,0,0,.48-1.94V70a3.76,3.76,0,0,0-.48-2.18,1.77,1.77,0,0,0-1.52-.64,1.51,1.51,0,0,0-1.35.73,4.82,4.82,0,0,0,0,4.15A1.53,1.53,0,0,0,147.25,72.81Z"/><path class="cls-1" d="M152.87,63.81a1,1,0,0,1,.25-.71.91.91,0,0,1,.7-.25.89.89,0,0,1,.68.25,1,1,0,0,1,.25.71,1,1,0,0,1-.25.69.9.9,0,0,1-.68.26.91.91,0,0,1-.7-.26A.93.93,0,0,1,152.87,63.81Zm1.77,10.25H153V66h1.67Z"/><path class="cls-1" d="M160.87,67.26H159v6.8h-1.67v-6.8H156v-.81l1.3-.52V65.4a3,3,0,0,1,.65-2.13,2.64,2.64,0,0,1,2-.69,5.16,5.16,0,0,1,1.73.3l-.44,1.3A3.9,3.9,0,0,0,160,64a1,1,0,0,0-.83.36,1.9,1.9,0,0,0-.26,1.09V66h1.92Zm1.24-3.45a1,1,0,0,1,.24-.71.94.94,0,0,1,.7-.25.9.9,0,0,1,.69.25,1,1,0,0,1,.24.71,1,1,0,0,1-.24.69.9.9,0,0,1-.69.26.94.94,0,0,1-.7-.26A1,1,0,0,1,162.11,63.81Zm1.77,10.25h-1.67V66h1.67Z"/><path class="cls-1" d="M169.54,74.2a3.71,3.71,0,0,1-2.86-1.1,4.26,4.26,0,0,1-1-3,4.65,4.65,0,0,1,1-3.11,3.62,3.62,0,0,1,5.1-.17,3.82,3.82,0,0,1,.9,2.69v.92h-5.24a2.74,2.74,0,0,0,.62,1.82,2.13,2.13,0,0,0,1.64.63,5.91,5.91,0,0,0,1.3-.13,6.65,6.65,0,0,0,1.29-.45v1.39a4.94,4.94,0,0,1-1.24.43A7.64,7.64,0,0,1,169.54,74.2Zm-.3-7.09a1.69,1.69,0,0,0-1.28.52,2.54,2.54,0,0,0-.57,1.52H171a2.3,2.3,0,0,0-.47-1.52A1.59,1.59,0,0,0,169.24,67.11Z"/><path class="cls-1" d="M177.05,74.2a2.68,2.68,0,0,1-2.29-1.1,6.13,6.13,0,0,1,0-6.18,2.74,2.74,0,0,1,2.31-1.11A2.68,2.68,0,0,1,179.44,67h.08a10.68,10.68,0,0,1-.12-1.38v-3h1.68v11.4h-1.31L179.48,73h-.08A2.62,2.62,0,0,1,177.05,74.2Zm.45-1.39a1.8,1.8,0,0,0,1.5-.59,3.26,3.26,0,0,0,.48-1.94V70a3.76,3.76,0,0,0-.48-2.18,1.76,1.76,0,0,0-1.51-.64,1.52,1.52,0,0,0-1.36.73,4.82,4.82,0,0,0,0,4.15A1.55,1.55,0,0,0,177.5,72.81Z"/><path class="cls-1" d="M195.33,74.06h-1.71V69.23h-4.79v4.83h-1.7V63.35h1.7v4.38h4.79V63.35h1.71Z"/><path class="cls-1" d="M201.56,74.06h-1.7V64.85h-3.05v-1.5h7.81v1.5h-3.06Z"/><path class="cls-1" d="M210.28,74.06h-1.7V64.85h-3.05v-1.5h7.8v1.5h-3.05Z"/><path class="cls-1" d="M221.7,66.59a3.18,3.18,0,0,1-1.06,2.57,4.65,4.65,0,0,1-3,.89h-1.08v4h-1.7V63.35h3a4.42,4.42,0,0,1,2.92.82A3,3,0,0,1,221.7,66.59Zm-5.18,2h.9a3.15,3.15,0,0,0,1.92-.47,1.72,1.72,0,0,0,.61-1.47,1.69,1.69,0,0,0-.54-1.37,2.69,2.69,0,0,0-1.71-.46h-1.18Z"/><path class="cls-1" d="M231.07,65.81a3.77,3.77,0,0,1,.83.07l-.16,1.61a3,3,0,0,0-.74-.09,2.08,2.08,0,0,0-1.62.67,2.47,2.47,0,0,0-.62,1.75v4.24h-1.67V66h1.3l.22,1.43h.09a3.2,3.2,0,0,1,1-1.16A2.39,2.39,0,0,1,231.07,65.81Z"/><path class="cls-1" d="M236.56,74.2a3.72,3.72,0,0,1-2.87-1.1,4.26,4.26,0,0,1-1-3,4.65,4.65,0,0,1,1-3.11,3.27,3.27,0,0,1,2.64-1.14,3.21,3.21,0,0,1,2.46,1,3.82,3.82,0,0,1,.9,2.69v.92h-5.24a2.74,2.74,0,0,0,.62,1.82,2.13,2.13,0,0,0,1.64.63,5.91,5.91,0,0,0,1.3-.13,6.65,6.65,0,0,0,1.29-.45v1.39a4.94,4.94,0,0,1-1.24.43A7.53,7.53,0,0,1,236.56,74.2Zm-.31-7.09a1.69,1.69,0,0,0-1.28.52,2.54,2.54,0,0,0-.57,1.52H238a2.3,2.3,0,0,0-.47-1.52A1.59,1.59,0,0,0,236.25,67.11Z"/><path class="cls-1" d="M246.68,71.75a2.14,2.14,0,0,1-.84,1.82,3.94,3.94,0,0,1-2.4.63,5.46,5.46,0,0,1-2.52-.49V72.23a6,6,0,0,0,2.58.66c1,0,1.54-.32,1.54-1a.81.81,0,0,0-.17-.52,2.37,2.37,0,0,0-.56-.42,10,10,0,0,0-1.09-.5,5,5,0,0,1-1.84-1.08A2,2,0,0,1,240.9,68a1.84,1.84,0,0,1,.82-1.61,3.71,3.71,0,0,1,2.21-.58,6,6,0,0,1,2.62.58L246,67.68a5.71,5.71,0,0,0-2.14-.54q-1.32,0-1.32.78a.78.78,0,0,0,.35.64,7.33,7.33,0,0,0,1.5.73,6.44,6.44,0,0,1,1.41.71,2.09,2.09,0,0,1,.66.74A2.25,2.25,0,0,1,246.68,71.75Z"/><path class="cls-1" d="M252.29,74.2A2.7,2.7,0,0,1,250,73.1h-.1c.06.68.1,1.1.1,1.24v3.32h-1.67V66h1.35c0,.15.11.51.23,1.08H250a2.59,2.59,0,0,1,2.34-1.23,2.69,2.69,0,0,1,2.29,1.1,6.2,6.2,0,0,1,0,6.18A2.74,2.74,0,0,1,252.29,74.2Zm-.4-7a1.7,1.7,0,0,0-1.45.6,3.15,3.15,0,0,0-.46,1.92V70a3.89,3.89,0,0,0,.45,2.14,1.67,1.67,0,0,0,1.49.67,1.49,1.49,0,0,0,1.33-.74,3.77,3.77,0,0,0,.47-2.08,3.72,3.72,0,0,0-.46-2.06A1.54,1.54,0,0,0,251.89,67.22Z"/><path class="cls-1" d="M264.23,70a4.49,4.49,0,0,1-1,3.1,3.47,3.47,0,0,1-2.75,1.11,3.67,3.67,0,0,1-1.94-.51,3.28,3.28,0,0,1-1.3-1.47,5,5,0,0,1-.46-2.23,4.47,4.47,0,0,1,1-3.07,3.51,3.51,0,0,1,2.77-1.11,3.44,3.44,0,0,1,2.7,1.13A4.48,4.48,0,0,1,264.23,70Zm-5.72,0c0,1.87.67,2.81,2,2.81s2-.94,2-2.81-.66-2.77-2-2.77a1.72,1.72,0,0,0-1.53.71A3.81,3.81,0,0,0,258.51,70Z"/><path class="cls-1" d="M272.86,74.06h-1.68v-5a2.23,2.23,0,0,0-.36-1.4,1.39,1.39,0,0,0-1.16-.46,1.81,1.81,0,0,0-1.55.64,3.62,3.62,0,0,0-.49,2.16v4H266V66h1.31l.23,1.06h.08a2.37,2.37,0,0,1,1-.89,3.31,3.31,0,0,1,1.45-.32c1.89,0,2.83,1,2.83,3Z"/><path class="cls-1" d="M280.34,71.75a2.14,2.14,0,0,1-.84,1.82,3.94,3.94,0,0,1-2.4.63,5.53,5.53,0,0,1-2.53-.49V72.23a6.08,6.08,0,0,0,2.58.66c1,0,1.54-.32,1.54-1a.76.76,0,0,0-.17-.52A2.18,2.18,0,0,0,278,71a9.75,9.75,0,0,0-1.08-.5A5,5,0,0,1,275,69.41a2,2,0,0,1-.48-1.41,1.86,1.86,0,0,1,.81-1.61,3.73,3.73,0,0,1,2.22-.58,6.07,6.07,0,0,1,2.62.58l-.54,1.29a5.71,5.71,0,0,0-2.14-.54q-1.32,0-1.32.78a.77.77,0,0,0,.34.64,7.33,7.33,0,0,0,1.5.73,6.81,6.81,0,0,1,1.42.71,2.06,2.06,0,0,1,.65.74A2.25,2.25,0,0,1,280.34,71.75Z"/><path class="cls-1" d="M285.41,74.2a3.73,3.73,0,0,1-2.87-1.1,4.26,4.26,0,0,1-1-3,4.65,4.65,0,0,1,1-3.11,3.26,3.26,0,0,1,2.63-1.14,3.21,3.21,0,0,1,2.46,1,3.82,3.82,0,0,1,.91,2.69v.92h-5.24a2.69,2.69,0,0,0,.62,1.82,2.12,2.12,0,0,0,1.64.63,6,6,0,0,0,1.3-.13,6.35,6.35,0,0,0,1.28-.45v1.39a4.74,4.74,0,0,1-1.23.43A7.64,7.64,0,0,1,285.41,74.2Zm-.31-7.09a1.66,1.66,0,0,0-1.27.52,2.54,2.54,0,0,0-.57,1.52h3.56a2.3,2.3,0,0,0-.46-1.52A1.61,1.61,0,0,0,285.1,67.11Z"/><path class="cls-1" d="M618.44,103.91h-2l-1.94-6.82c-.08-.29-.19-.72-.31-1.28s-.2-1-.23-1.17c0,.33-.13.77-.25,1.3s-.22.92-.29,1.18l-1.89,6.79h-2L608,98.19l-1.5-5.71h1.9L610,99.14c.25,1.07.43,2,.54,2.83.06-.44.15-.94.26-1.49s.22-1,.31-1.32L613,92.48h1.85l1.91,6.71a24.48,24.48,0,0,1,.58,2.78,20.31,20.31,0,0,1,.56-2.85l1.63-6.64h1.89Z"/><path class="cls-1" d="M626.31,104.06a4.2,4.2,0,0,1-3.16-1.17A4.52,4.52,0,0,1,622,99.65a4.92,4.92,0,0,1,1.05-3.33,3.65,3.65,0,0,1,2.9-1.21,3.56,3.56,0,0,1,2.7,1,4,4,0,0,1,1,2.86v1h-5.76a2.78,2.78,0,0,0,.68,1.93,2.36,2.36,0,0,0,1.8.68,6.47,6.47,0,0,0,1.43-.15,6.8,6.8,0,0,0,1.42-.48v1.5a6,6,0,0,1-1.36.45A8.23,8.23,0,0,1,626.31,104.06ZM626,96.5a1.84,1.84,0,0,0-1.4.55,2.67,2.67,0,0,0-.63,1.62h3.92a2.41,2.41,0,0,0-.51-1.62A1.78,1.78,0,0,0,626,96.5Z"/><path class="cls-1" d="M636.15,95.11a3,3,0,0,1,2.52,1.17,6.41,6.41,0,0,1,0,6.6,3.32,3.32,0,0,1-5.08,0h-.13l-.34,1h-1.37V91.75h1.84v2.89c0,.21,0,.53,0,1s0,.69,0,.81h.08A2.9,2.9,0,0,1,636.15,95.11Zm-.47,1.5a1.88,1.88,0,0,0-1.6.65,3.76,3.76,0,0,0-.5,2.18v.13a4,4,0,0,0,.5,2.28,1.83,1.83,0,0,0,1.63.71,1.67,1.67,0,0,0,1.48-.77,4.18,4.18,0,0,0,.5-2.24Q637.69,96.61,635.68,96.61Z"/><path class="cls-1" d="M652.65,100.8a2.85,2.85,0,0,1-1.11,2.39,4.76,4.76,0,0,1-3,.87,7.29,7.29,0,0,1-3.17-.6v-1.77a8.36,8.36,0,0,0,1.66.58,7.09,7.09,0,0,0,1.64.21,2.64,2.64,0,0,0,1.64-.42,1.37,1.37,0,0,0,.52-1.13,1.43,1.43,0,0,0-.48-1.09,7.29,7.29,0,0,0-2-1,5.15,5.15,0,0,1-2.2-1.45,3,3,0,0,1-.64-2,2.73,2.73,0,0,1,1-2.25,4.21,4.21,0,0,1,2.73-.82,8,8,0,0,1,3.26.72l-.59,1.52a7.28,7.28,0,0,0-2.72-.64,2,2,0,0,0-1.37.4,1.27,1.27,0,0,0-.47,1,1.5,1.5,0,0,0,.18.76,2.1,2.1,0,0,0,.62.6,10.5,10.5,0,0,0,1.55.74,8.49,8.49,0,0,1,1.84,1,2.83,2.83,0,0,1,.86,1A3.11,3.11,0,0,1,652.65,100.8Z"/><path class="cls-1" d="M658.51,104.06a4.19,4.19,0,0,1-3.15-1.17,4.47,4.47,0,0,1-1.13-3.24,4.92,4.92,0,0,1,1-3.33,3.63,3.63,0,0,1,2.9-1.21,3.56,3.56,0,0,1,2.7,1,4,4,0,0,1,1,2.86v1h-5.75a2.78,2.78,0,0,0,.68,1.93,2.34,2.34,0,0,0,1.8.68,6.47,6.47,0,0,0,1.43-.15,6.54,6.54,0,0,0,1.41-.48v1.5a5.71,5.71,0,0,1-1.36.45A8.16,8.16,0,0,1,658.51,104.06Zm-.33-7.56a1.84,1.84,0,0,0-1.4.55,2.56,2.56,0,0,0-.63,1.62h3.92a2.37,2.37,0,0,0-.52-1.62A1.74,1.74,0,0,0,658.18,96.5Z"/><path class="cls-1" d="M668.33,95.11a4.51,4.51,0,0,1,.91.08l-.18,1.71a3.59,3.59,0,0,0-.81-.1,2.34,2.34,0,0,0-1.78.72,2.59,2.59,0,0,0-.69,1.87v4.52H664V95.26h1.43l.25,1.53h.09a3.42,3.42,0,0,1,1.12-1.23A2.68,2.68,0,0,1,668.33,95.11Z"/><path class="cls-1" d="M673.44,103.91l-3.28-8.65h1.94l1.76,5a9.65,9.65,0,0,1,.54,2h.07a13.42,13.42,0,0,1,.54-2l1.76-5h2l-3.29,8.65Z"/><path class="cls-1" d="M683.64,104.06a4.19,4.19,0,0,1-3.15-1.17,4.48,4.48,0,0,1-1.14-3.24,4.93,4.93,0,0,1,1.06-3.33,3.63,3.63,0,0,1,2.9-1.21,3.56,3.56,0,0,1,2.7,1A4,4,0,0,1,687,99v1h-5.76a2.88,2.88,0,0,0,.68,1.93,2.38,2.38,0,0,0,1.81.68,6.38,6.38,0,0,0,1.42-.15,6.61,6.61,0,0,0,1.42-.48v1.5a5.86,5.86,0,0,1-1.36.45A8.23,8.23,0,0,1,683.64,104.06Zm-.33-7.56a1.86,1.86,0,0,0-1.41.55,2.61,2.61,0,0,0-.62,1.62h3.92a2.42,2.42,0,0,0-.52-1.62A1.74,1.74,0,0,0,683.31,96.5Z"/><path class="cls-1" d="M693.46,95.11a4.51,4.51,0,0,1,.91.08l-.18,1.71a3.59,3.59,0,0,0-.81-.1,2.37,2.37,0,0,0-1.79.72,2.62,2.62,0,0,0-.68,1.87v4.52h-1.83V95.26h1.43l.24,1.53h.1A3.33,3.33,0,0,1,692,95.56,2.68,2.68,0,0,1,693.46,95.11Z"/><path class="cls-1" d="M300.19,101a2.88,2.88,0,0,1-1.1,2.39,4.78,4.78,0,0,1-3,.87,7.25,7.25,0,0,1-3.17-.6v-1.77a8.14,8.14,0,0,0,1.66.58,7,7,0,0,0,1.64.21,2.61,2.61,0,0,0,1.63-.42,1.38,1.38,0,0,0,.53-1.13,1.43,1.43,0,0,0-.48-1.09,7.4,7.4,0,0,0-2-1.06,5.28,5.28,0,0,1-2.21-1.44,3.09,3.09,0,0,1-.64-1.95,2.71,2.71,0,0,1,1-2.25,4.16,4.16,0,0,1,2.72-.82,8.14,8.14,0,0,1,3.27.71l-.59,1.53a7.13,7.13,0,0,0-2.72-.64,2.1,2.1,0,0,0-1.38.39,1.3,1.3,0,0,0-.47,1.05,1.53,1.53,0,0,0,.19.76,1.86,1.86,0,0,0,.62.59,10,10,0,0,0,1.54.75,8.66,8.66,0,0,1,1.85,1,3,3,0,0,1,.86,1A3.08,3.08,0,0,1,300.19,101Z"/><path class="cls-1" d="M306.06,104.21a4.16,4.16,0,0,1-3.15-1.18,4.45,4.45,0,0,1-1.14-3.24,4.83,4.83,0,0,1,1.06-3.32,3.62,3.62,0,0,1,2.89-1.21,3.56,3.56,0,0,1,2.71,1,4,4,0,0,1,1,2.86v1h-5.76a2.85,2.85,0,0,0,.68,1.93,2.38,2.38,0,0,0,1.81.68,6.38,6.38,0,0,0,1.42-.15,7.93,7.93,0,0,0,1.42-.48v1.49a5.46,5.46,0,0,1-1.36.46A9.13,9.13,0,0,1,306.06,104.21Zm-.34-7.56a1.84,1.84,0,0,0-1.4.55,2.67,2.67,0,0,0-.63,1.62h3.93a2.43,2.43,0,0,0-.52-1.62A1.75,1.75,0,0,0,305.72,96.65Z"/><path class="cls-1" d="M315.88,95.26a4.6,4.6,0,0,1,.91.07L316.61,97a3.59,3.59,0,0,0-.81-.09,2.36,2.36,0,0,0-1.79.72,2.62,2.62,0,0,0-.68,1.87v4.51h-1.84V95.41h1.44l.24,1.52h.1a3.38,3.38,0,0,1,1.12-1.22A2.66,2.66,0,0,1,315.88,95.26Z"/><path class="cls-1" d="M321,104.05l-3.28-8.64h1.94l1.75,5a9.48,9.48,0,0,1,.55,2H322a14.18,14.18,0,0,1,.55-2l1.76-5h1.95l-3.3,8.64Z"/><path class="cls-1" d="M327.59,93.12a1,1,0,0,1,.27-.76,1.07,1.07,0,0,1,.77-.26,1.05,1.05,0,0,1,.75.26,1,1,0,0,1,.27.76.93.93,0,0,1-1,1,1,1,0,0,1-.77-.27A1,1,0,0,1,327.59,93.12Zm1.94,10.93H327.7V95.41h1.83Z"/><path class="cls-1" d="M335.56,104.21a3.74,3.74,0,0,1-3-1.15,4.76,4.76,0,0,1-1-3.28,4.81,4.81,0,0,1,1.06-3.35,4,4,0,0,1,3.08-1.17,5.69,5.69,0,0,1,2.46.5l-.55,1.48a5.63,5.63,0,0,0-1.92-.45c-1.5,0-2.24,1-2.24,3A3.61,3.61,0,0,0,334,102a2,2,0,0,0,1.64.73,4.76,4.76,0,0,0,2.32-.61v1.6a3.64,3.64,0,0,1-1,.41A5.82,5.82,0,0,1,335.56,104.21Z"/><path class="cls-1" d="M343.61,104.21a4.17,4.17,0,0,1-3.16-1.18,4.48,4.48,0,0,1-1.13-3.24,4.88,4.88,0,0,1,1.05-3.32,3.65,3.65,0,0,1,2.9-1.21,3.56,3.56,0,0,1,2.7,1,4,4,0,0,1,1,2.86v1h-5.76a2.8,2.8,0,0,0,.68,1.93,2.36,2.36,0,0,0,1.8.68,6.47,6.47,0,0,0,1.43-.15,8.2,8.2,0,0,0,1.42-.48v1.49a5.6,5.6,0,0,1-1.36.46A9.13,9.13,0,0,1,343.61,104.21Zm-.34-7.56a1.84,1.84,0,0,0-1.4.55,2.67,2.67,0,0,0-.63,1.62h3.92a2.38,2.38,0,0,0-.51-1.62A1.78,1.78,0,0,0,343.27,96.65Z"/><path class="cls-1" d="M363.94,104.05h-2L360,97.24c-.08-.3-.18-.73-.31-1.29s-.2-.94-.23-1.16c-.05.33-.13.76-.25,1.29s-.21.93-.29,1.19L357,104.05h-2l-1.48-5.72-1.5-5.7h1.91l1.63,6.66c.25,1.06.44,2,.55,2.82.05-.44.14-.93.25-1.48s.22-1,.32-1.33l1.85-6.67h1.86l1.9,6.7a22.85,22.85,0,0,1,.58,2.78,21.78,21.78,0,0,1,.56-2.84L365,92.63h1.89Z"/><path class="cls-1" d="M375.7,99.72a4.68,4.68,0,0,1-1.09,3.3,3.89,3.89,0,0,1-3,1.19,4.08,4.08,0,0,1-2.14-.55,3.58,3.58,0,0,1-1.43-1.57,5.37,5.37,0,0,1-.5-2.37,4.69,4.69,0,0,1,1.08-3.29,3.93,3.93,0,0,1,3-1.17,3.82,3.82,0,0,1,3,1.2A4.72,4.72,0,0,1,375.7,99.72Zm-6.29,0c0,2,.74,3,2.21,3s2.19-1,2.19-3-.74-3-2.2-3a1.88,1.88,0,0,0-1.68.76A3.87,3.87,0,0,0,369.41,99.72Z"/><path class="cls-1" d="M382.12,95.26a4.71,4.71,0,0,1,.92.07L382.86,97a3.59,3.59,0,0,0-.81-.09,2.36,2.36,0,0,0-1.79.72,2.58,2.58,0,0,0-.68,1.87v4.51h-1.84V95.41h1.44l.24,1.52h.09a3.41,3.41,0,0,1,1.13-1.22A2.65,2.65,0,0,1,382.12,95.26Z"/><path class="cls-1" d="M386.38,99.49l1-1.3L390,95.41h2.12l-3.48,3.71,3.7,4.93h-2.16l-2.77-3.79-1,.83v3h-1.82V91.9h1.82v5.93l-.1,1.66Z"/><path class="cls-1" d="M397.13,104.21A4.17,4.17,0,0,1,394,103a4.48,4.48,0,0,1-1.13-3.24,4.88,4.88,0,0,1,1.05-3.32,3.63,3.63,0,0,1,2.9-1.21,3.56,3.56,0,0,1,2.7,1,4,4,0,0,1,1,2.86v1h-5.76a2.8,2.8,0,0,0,.68,1.93,2.36,2.36,0,0,0,1.8.68,6.47,6.47,0,0,0,1.43-.15,8.2,8.2,0,0,0,1.42-.48v1.49a5.6,5.6,0,0,1-1.36.46A9.22,9.22,0,0,1,397.13,104.21Zm-.34-7.56a1.84,1.84,0,0,0-1.4.55,2.67,2.67,0,0,0-.63,1.62h3.92a2.33,2.33,0,0,0-.52-1.62A1.74,1.74,0,0,0,396.79,96.65Z"/><path class="cls-1" d="M406.94,95.26a4.71,4.71,0,0,1,.92.07L407.68,97a3.75,3.75,0,0,0-.82-.09,2.34,2.34,0,0,0-1.78.72,2.59,2.59,0,0,0-.69,1.87v4.51h-1.83V95.41H404l.24,1.52h.09a3.47,3.47,0,0,1,1.12-1.22A2.68,2.68,0,0,1,406.94,95.26Z"/><path class="cls-1" d="M19,104.38H17L15,97.57c-.09-.3-.19-.72-.32-1.28s-.2-1-.22-1.17c-.05.33-.14.76-.26,1.3s-.21.92-.29,1.18L12,104.38H10L8.53,98.67,7,93H8.94l1.63,6.66a27.71,27.71,0,0,1,.55,2.83c.06-.45.14-.94.26-1.49s.21-1,.31-1.33L13.55,93H15.4l1.91,6.71a24.93,24.93,0,0,1,.57,2.78,20.28,20.28,0,0,1,.57-2.85L20.07,93H22Z"/><path class="cls-1" d="M26.85,104.54a4.16,4.16,0,0,1-3.15-1.18,4.44,4.44,0,0,1-1.14-3.23,4.88,4.88,0,0,1,1.06-3.33,3.63,3.63,0,0,1,2.9-1.21,3.53,3.53,0,0,1,2.7,1,4,4,0,0,1,1,2.86v1H24.45a2.88,2.88,0,0,0,.68,1.93,2.38,2.38,0,0,0,1.81.68,6.38,6.38,0,0,0,1.42-.15,6.61,6.61,0,0,0,1.42-.48V104a5.46,5.46,0,0,1-1.36.46A8.23,8.23,0,0,1,26.85,104.54ZM26.52,97a1.85,1.85,0,0,0-1.41.55,2.67,2.67,0,0,0-.63,1.62h3.93a2.47,2.47,0,0,0-.52-1.62A1.74,1.74,0,0,0,26.52,97Z"/><path class="cls-1" d="M36.7,95.59a3,3,0,0,1,2.52,1.17,5.3,5.3,0,0,1,.9,3.29,5.36,5.36,0,0,1-.91,3.31,3.33,3.33,0,0,1-5.09,0H34l-.33,1H32.28V92.23h1.84v2.89c0,.21,0,.53,0,.95s0,.69-.05.81h.08A2.91,2.91,0,0,1,36.7,95.59Zm-.48,1.5a1.89,1.89,0,0,0-1.6.65,3.82,3.82,0,0,0-.5,2.18v.13a4.05,4.05,0,0,0,.5,2.28,1.84,1.84,0,0,0,1.63.71,1.66,1.66,0,0,0,1.48-.77,4.08,4.08,0,0,0,.51-2.24C38.24,98.07,37.56,97.09,36.22,97.09Z"/><path class="cls-1" d="M46.6,104.54a3,3,0,0,1-2.55-1.18h-.11c.08.73.11,1.17.11,1.33v3.54H42.22V95.74H43.7c0,.16.13.55.26,1.16h.09a2.88,2.88,0,0,1,2.58-1.31,3,3,0,0,1,2.52,1.17,6.45,6.45,0,0,1,0,6.59A3,3,0,0,1,46.6,104.54Zm-.45-7.45a1.89,1.89,0,0,0-1.59.64,3.27,3.27,0,0,0-.51,2v.28a4.05,4.05,0,0,0,.5,2.28,1.86,1.86,0,0,0,1.64.71,1.65,1.65,0,0,0,1.46-.78,4,4,0,0,0,.52-2.23,3.91,3.91,0,0,0-.51-2.2A1.72,1.72,0,0,0,46.15,97.09Z"/><path class="cls-1" d="M57.56,104.38l-.37-1.2h-.06a3.68,3.68,0,0,1-1.26,1.08,4,4,0,0,1-1.63.28,2.73,2.73,0,0,1-2-.69,2.55,2.55,0,0,1-.72-1.94,2.3,2.3,0,0,1,1-2,5.74,5.74,0,0,1,3-.74l1.49-.05v-.46a1.76,1.76,0,0,0-.39-1.24,1.58,1.58,0,0,0-1.2-.41,4.16,4.16,0,0,0-1.27.2,8.62,8.62,0,0,0-1.17.46l-.6-1.31A6.41,6.41,0,0,1,54,95.78a7,7,0,0,1,1.58-.19,3.74,3.74,0,0,1,2.49.72,2.81,2.81,0,0,1,.84,2.25v5.82Zm-2.74-1.25a2.3,2.3,0,0,0,1.61-.55A2.06,2.06,0,0,0,57,101v-.75l-1.11,0a3.74,3.74,0,0,0-1.88.43,1.3,1.3,0,0,0-.59,1.18,1.15,1.15,0,0,0,.34.9A1.48,1.48,0,0,0,54.82,103.13Z"/><path class="cls-1" d="M68.66,95.74v1L67.18,97a2.4,2.4,0,0,1,.34.68,2.55,2.55,0,0,1,.13.84,2.59,2.59,0,0,1-.92,2.1,3.85,3.85,0,0,1-2.54.77,4.22,4.22,0,0,1-.75-.06,1,1,0,0,0-.59.85.48.48,0,0,0,.27.45,2.41,2.41,0,0,0,1,.15h1.51a3.32,3.32,0,0,1,2.17.61,2.12,2.12,0,0,1,.75,1.76,2.56,2.56,0,0,1-1.22,2.26,6.36,6.36,0,0,1-3.5.8,4.8,4.8,0,0,1-2.69-.63,2,2,0,0,1-.93-1.78,1.92,1.92,0,0,1,.5-1.34,2.74,2.74,0,0,1,1.41-.75,1.4,1.4,0,0,1-.6-.51,1.25,1.25,0,0,1-.24-.73,1.28,1.28,0,0,1,.27-.82,3.45,3.45,0,0,1,.82-.66,2.36,2.36,0,0,1-1.09-.94,2.79,2.79,0,0,1-.42-1.53,2.72,2.72,0,0,1,.89-2.18,3.74,3.74,0,0,1,2.52-.77,5.14,5.14,0,0,1,.77,0,5.91,5.91,0,0,1,.61.1Zm-6.79,10a1,1,0,0,0,.54.91,2.84,2.84,0,0,0,1.5.32,4.49,4.49,0,0,0,2.23-.43,1.28,1.28,0,0,0,.74-1.14.88.88,0,0,0-.4-.8,3.23,3.23,0,0,0-1.5-.24H63.59a2,2,0,0,0-1.25.37A1.24,1.24,0,0,0,61.87,105.73Zm.79-7.19a1.73,1.73,0,0,0,.42,1.25,1.59,1.59,0,0,0,1.2.44q1.59,0,1.59-1.71a2,2,0,0,0-.39-1.3,1.53,1.53,0,0,0-1.2-.45,1.55,1.55,0,0,0-1.21.45A1.91,1.91,0,0,0,62.66,98.54Z"/><path class="cls-1" d="M73.83,104.54a4.17,4.17,0,0,1-3.16-1.18,4.47,4.47,0,0,1-1.13-3.23,4.92,4.92,0,0,1,1-3.33,3.63,3.63,0,0,1,2.9-1.21,3.53,3.53,0,0,1,2.7,1,4,4,0,0,1,1,2.86v1H71.43a2.78,2.78,0,0,0,.68,1.93,2.36,2.36,0,0,0,1.8.68,6.47,6.47,0,0,0,1.43-.15,6.8,6.8,0,0,0,1.42-.48V104a5.6,5.6,0,0,1-1.36.46A8.3,8.3,0,0,1,73.83,104.54ZM73.49,97a1.84,1.84,0,0,0-1.4.55,2.67,2.67,0,0,0-.63,1.62h3.92a2.37,2.37,0,0,0-.52-1.62A1.74,1.74,0,0,0,73.49,97Z"/><line class="cls-2" x1="106.52" y1="29.76" x2="286.23" y2="29.76"/><polygon class="cls-1" points="282.25 33.15 285.64 29.76 282.25 26.37 285.13 26.37 288.52 29.76 285.13 33.15 282.25 33.15"/><line class="cls-2" x1="108.8" y1="48.09" x2="288.52" y2="48.09"/><polygon class="cls-1" points="112.79 51.48 109.39 48.09 112.79 44.7 109.91 44.7 106.52 48.09 109.91 51.48 112.79 51.48"/><path class="cls-1" d="M419.37,14.57h-7v-1.3L415,10.49a22.73,22.73,0,0,0,1.57-1.77,4.29,4.29,0,0,0,.57-1,2.86,2.86,0,0,0,.17-1,1.54,1.54,0,0,0-.42-1.14,1.58,1.58,0,0,0-1.17-.42,3,3,0,0,0-1.15.23,5.59,5.59,0,0,0-1.29.82l-.9-1.13A5.48,5.48,0,0,1,414.07,4a4.76,4.76,0,0,1,1.74-.32,3.34,3.34,0,0,1,2.32.78,2.65,2.65,0,0,1,.88,2.1A3.8,3.8,0,0,1,418.75,8,5.33,5.33,0,0,1,418,9.31a17.86,17.86,0,0,1-1.74,1.87l-1.8,1.8v.08h4.93Z"/><path class="cls-1" d="M421.12,13.66a1.14,1.14,0,0,1,.27-.82,1,1,0,0,1,.78-.29,1,1,0,0,1,.79.3,1.37,1.37,0,0,1,0,1.63,1,1,0,0,1-.79.31,1,1,0,0,1-.78-.3A1.2,1.2,0,0,1,421.12,13.66Z"/><path class="cls-1" d="M433.53,14.57l-3-8.94h-.05c.08,1.33.12,2.57.12,3.74v5.2H429V3.87h2.39l2.89,8.51h0l3-8.51h2.4v10.7H438.1V9.28c0-.53,0-1.23,0-2.08s.05-1.37.07-1.55h-.05L435,14.57Z"/><path class="cls-1" d="M449.08,10.51a4.53,4.53,0,0,1-1,3.1,3.49,3.49,0,0,1-2.75,1.11,3.67,3.67,0,0,1-1.94-.51,3.28,3.28,0,0,1-1.3-1.47,5.08,5.08,0,0,1-.46-2.23,4.52,4.52,0,0,1,1-3.08,3.52,3.52,0,0,1,2.76-1.1,3.38,3.38,0,0,1,2.7,1.13A4.41,4.41,0,0,1,449.08,10.51Zm-5.72,0c0,1.87.67,2.8,2,2.8s2-.93,2-2.8-.67-2.78-2-2.78a1.71,1.71,0,0,0-1.53.72A3.78,3.78,0,0,0,443.36,10.51Z"/><path class="cls-1" d="M453.52,14.72a2.71,2.71,0,0,1-2.29-1.1,5,5,0,0,1-.83-3.08,5,5,0,0,1,.84-3.1,2.71,2.71,0,0,1,2.31-1.11,2.68,2.68,0,0,1,2.36,1.18H456a10.68,10.68,0,0,1-.12-1.38V3.18h1.68V14.57h-1.31L456,13.51h-.08A2.63,2.63,0,0,1,453.52,14.72Zm.45-1.39a1.81,1.81,0,0,0,1.5-.6,3.24,3.24,0,0,0,.48-1.94v-.24a3.72,3.72,0,0,0-.48-2.17A1.79,1.79,0,0,0,454,7.73a1.52,1.52,0,0,0-1.35.74,3.84,3.84,0,0,0-.48,2.1,3.73,3.73,0,0,0,.46,2A1.56,1.56,0,0,0,454,13.33Z"/><path class="cls-1" d="M459.59,4.33a.93.93,0,0,1,.25-.71.91.91,0,0,1,.7-.25.89.89,0,0,1,.68.25,1,1,0,0,1,.25.71,1,1,0,0,1-.25.69.89.89,0,0,1-.68.25.91.91,0,0,1-.7-.25A.93.93,0,0,1,459.59,4.33Zm1.77,10.24h-1.67V6.47h1.67Z"/><path class="cls-1" d="M467.59,7.78h-1.92v6.79H464V7.78h-1.29V7L464,6.44V5.92a3,3,0,0,1,.65-2.13,2.64,2.64,0,0,1,2-.69,5.16,5.16,0,0,1,1.73.3l-.44,1.3a3.61,3.61,0,0,0-1.18-.2,1,1,0,0,0-.83.36A1.88,1.88,0,0,0,465.67,6v.52h1.92Zm1.24-3.45a1,1,0,0,1,.24-.71.94.94,0,0,1,.7-.25.9.9,0,0,1,.69.25,1,1,0,0,1,.24.71,1,1,0,0,1-.24.69.9.9,0,0,1-.69.25.94.94,0,0,1-.7-.25A1,1,0,0,1,468.83,4.33Zm1.77,10.24h-1.67V6.47h1.67Z"/><path class="cls-1" d="M476.26,14.72a3.74,3.74,0,0,1-2.86-1.1,4.28,4.28,0,0,1-1-3,4.69,4.69,0,0,1,1-3.12A3.29,3.29,0,0,1,476,6.33a3.19,3.19,0,0,1,2.46,1,3.79,3.79,0,0,1,.9,2.68v.93h-5.24a2.72,2.72,0,0,0,.62,1.81,2.1,2.1,0,0,0,1.64.64,5.89,5.89,0,0,0,1.3-.14,6.65,6.65,0,0,0,1.29-.45v1.4a5.37,5.37,0,0,1-1.24.43A7.64,7.64,0,0,1,476.26,14.72ZM476,7.63a1.65,1.65,0,0,0-1.28.52,2.51,2.51,0,0,0-.57,1.52h3.57a2.3,2.3,0,0,0-.47-1.52A1.56,1.56,0,0,0,476,7.63Z"/><path class="cls-1" d="M483.77,14.72a2.71,2.71,0,0,1-2.29-1.1,5,5,0,0,1-.82-3.08,5,5,0,0,1,.83-3.1,2.74,2.74,0,0,1,2.31-1.11,2.68,2.68,0,0,1,2.36,1.18h.09a10.68,10.68,0,0,1-.12-1.38V3.18h1.67V14.57h-1.3l-.3-1.06h-.07A2.65,2.65,0,0,1,483.77,14.72Zm.45-1.39a1.78,1.78,0,0,0,1.5-.6,3.24,3.24,0,0,0,.48-1.94v-.24a3.72,3.72,0,0,0-.48-2.17,1.77,1.77,0,0,0-1.51-.65,1.53,1.53,0,0,0-1.36.74,3.84,3.84,0,0,0-.48,2.1,3.72,3.72,0,0,0,.47,2A1.54,1.54,0,0,0,484.22,13.33Z"/><path class="cls-1" d="M502.05,14.57h-1.71V9.75h-4.79v4.82h-1.69V3.87h1.69V8.25h4.79V3.87h1.71Z"/><path class="cls-1" d="M508.28,14.57h-1.7V5.37h-3.05V3.87h7.81v1.5h-3.06Z"/><path class="cls-1" d="M517,14.57h-1.7V5.37h-3V3.87h7.8v1.5h-3Z"/><path class="cls-1" d="M528.42,7.1a3.15,3.15,0,0,1-1.06,2.57,4.59,4.59,0,0,1-3,.9h-1.08v4h-1.7V3.87h3a4.39,4.39,0,0,1,2.91.82A3,3,0,0,1,528.42,7.1Zm-5.18,2h.91a3.13,3.13,0,0,0,1.91-.47,1.73,1.73,0,0,0,.61-1.47,1.72,1.72,0,0,0-.54-1.38,2.69,2.69,0,0,0-1.71-.45h-1.18Z"/><path class="cls-1" d="M537.79,6.33a3.77,3.77,0,0,1,.83.07L538.46,8a3,3,0,0,0-.74-.08,2.08,2.08,0,0,0-1.62.67,2.45,2.45,0,0,0-.62,1.75v4.23h-1.67V6.47h1.3l.22,1.43h.09a3.17,3.17,0,0,1,1-1.15A2.39,2.39,0,0,1,537.79,6.33Z"/><path class="cls-1" d="M543.28,14.72a3.75,3.75,0,0,1-2.87-1.1,4.27,4.27,0,0,1-1-3,4.75,4.75,0,0,1,1-3.12A3.29,3.29,0,0,1,543,6.33a3.18,3.18,0,0,1,2.46,1,3.79,3.79,0,0,1,.9,2.68v.93H541.1a2.71,2.71,0,0,0,.61,1.81,2.1,2.1,0,0,0,1.64.64,5.89,5.89,0,0,0,1.3-.14,6.65,6.65,0,0,0,1.29-.45v1.4a5.37,5.37,0,0,1-1.24.43A7.53,7.53,0,0,1,543.28,14.72ZM543,7.63a1.63,1.63,0,0,0-1.27.52,2.58,2.58,0,0,0-.58,1.52h3.57a2.3,2.3,0,0,0-.47-1.52A1.56,1.56,0,0,0,543,7.63Z"/><path class="cls-1" d="M550.77,14.72a2.7,2.7,0,0,1-2.28-1.1,5.06,5.06,0,0,1-.82-3.08,5.14,5.14,0,0,1,.83-3.1,2.74,2.74,0,0,1,2.31-1.11,3,3,0,0,1,1.33.28,2.91,2.91,0,0,1,1.05.92h0l.19-1.06h1.38V18.18h-1.67V14.74c0-.21,0-.44,0-.68a5,5,0,0,1,.05-.55h-.1A2.53,2.53,0,0,1,550.77,14.72Zm.48-1.38a1.77,1.77,0,0,0,1.51-.62,3.26,3.26,0,0,0,.46-1.9v-.27a3.75,3.75,0,0,0-.48-2.16,1.73,1.73,0,0,0-1.52-.66,1.51,1.51,0,0,0-1.36.74,3.8,3.8,0,0,0-.47,2.1C549.39,12.42,550,13.34,551.25,13.34Z"/><path class="cls-1" d="M562.52,14.57l-.24-1.06h-.08a2.38,2.38,0,0,1-1,.89,3.31,3.31,0,0,1-1.47.32,2.82,2.82,0,0,1-2.13-.73,3.1,3.1,0,0,1-.7-2.22V6.47h1.68v5a2.18,2.18,0,0,0,.37,1.39,1.4,1.4,0,0,0,1.16.47,1.82,1.82,0,0,0,1.54-.65,3.65,3.65,0,0,0,.5-2.17v-4h1.67v8.1Z"/><path class="cls-1" d="M569.45,14.72a3.77,3.77,0,0,1-2.87-1.1,4.27,4.27,0,0,1-1-3,4.69,4.69,0,0,1,1-3.12,3.28,3.28,0,0,1,2.63-1.13,3.18,3.18,0,0,1,2.46,1,3.79,3.79,0,0,1,.9,2.68v.93h-5.23a2.66,2.66,0,0,0,.62,1.81,2.09,2.09,0,0,0,1.64.64,6,6,0,0,0,1.3-.14,6.35,6.35,0,0,0,1.28-.45v1.4a5.3,5.3,0,0,1-1.23.43A7.64,7.64,0,0,1,569.45,14.72Zm-.31-7.09a1.63,1.63,0,0,0-1.27.52,2.51,2.51,0,0,0-.57,1.52h3.56a2.3,2.3,0,0,0-.46-1.52A1.59,1.59,0,0,0,569.14,7.63Z"/><path class="cls-1" d="M579.57,12.27a2.17,2.17,0,0,1-.83,1.82,4,4,0,0,1-2.41.63,5.51,5.51,0,0,1-2.52-.49V12.74a6.08,6.08,0,0,0,2.58.66c1,0,1.54-.32,1.54-1a.75.75,0,0,0-.17-.51,1.8,1.8,0,0,0-.56-.42,7.83,7.83,0,0,0-1.09-.5,5,5,0,0,1-1.83-1.09,2,2,0,0,1-.48-1.4,1.86,1.86,0,0,1,.81-1.62,3.79,3.79,0,0,1,2.21-.57,6.08,6.08,0,0,1,2.63.58l-.54,1.29a5.71,5.71,0,0,0-2.14-.54q-1.32,0-1.32.78a.78.78,0,0,0,.34.64,7.33,7.33,0,0,0,1.5.73,6.35,6.35,0,0,1,1.42.71,2.06,2.06,0,0,1,.65.74A2.25,2.25,0,0,1,579.57,12.27Z"/><path class="cls-1" d="M584.36,13.33a4,4,0,0,0,1.22-.2v1.3a3.6,3.6,0,0,1-.71.21,5.5,5.5,0,0,1-.91.08q-2.37,0-2.37-2.58V7.78h-1.08V7l1.15-.62.57-1.72h1v1.8h2.24V7.78h-2.24v4.33a1.2,1.2,0,0,0,.31.92A1.06,1.06,0,0,0,584.36,13.33Z"/><path class="cls-1" d="M419.67,65.81a2.57,2.57,0,0,1-.57,1.7,2.88,2.88,0,0,1-1.62.91v.06a3,3,0,0,1,1.87.8A2.32,2.32,0,0,1,420,71a2.84,2.84,0,0,1-1.06,2.38,4.73,4.73,0,0,1-3,.84,6.68,6.68,0,0,1-2.91-.57V72.09a6,6,0,0,0,1.4.52,5.5,5.5,0,0,0,1.42.19,3,3,0,0,0,1.8-.46,1.7,1.7,0,0,0,.6-1.43,1.37,1.37,0,0,0-.66-1.26,4.09,4.09,0,0,0-2.08-.41h-.9V67.85h.92c1.65,0,2.48-.59,2.48-1.78a1.32,1.32,0,0,0-.43-1.06,1.9,1.9,0,0,0-1.28-.37,4,4,0,0,0-1.14.17,5.73,5.73,0,0,0-1.29.67l-.82-1.2a5.37,5.37,0,0,1,3.32-1.08,3.86,3.86,0,0,1,2.45.69A2.29,2.29,0,0,1,419.67,65.81Z"/><path class="cls-1" d="M421.58,73.14a1.16,1.16,0,0,1,.27-.82,1,1,0,0,1,.78-.28,1,1,0,0,1,.79.29,1.17,1.17,0,0,1,.27.81,1.22,1.22,0,0,1-.28.83,1,1,0,0,1-.78.3,1,1,0,0,1-.78-.3A1.2,1.2,0,0,1,421.58,73.14Z"/><path class="cls-1" d="M435.48,71.15a2.75,2.75,0,0,1-1,2.24,4.29,4.29,0,0,1-2.77.81,6.37,6.37,0,0,1-2.88-.56V72a8.21,8.21,0,0,0,1.51.55,6.27,6.27,0,0,0,1.49.19,2.35,2.35,0,0,0,1.49-.39,1.32,1.32,0,0,0,.48-1.06,1.34,1.34,0,0,0-.45-1,6.49,6.49,0,0,0-1.81-1,4.85,4.85,0,0,1-2-1.36,2.88,2.88,0,0,1-.58-1.83,2.63,2.63,0,0,1,.92-2.11,3.79,3.79,0,0,1,2.48-.76,7,7,0,0,1,3,.67l-.54,1.43a6.33,6.33,0,0,0-2.47-.6,1.83,1.83,0,0,0-1.25.37,1.23,1.23,0,0,0-.43,1,1.47,1.47,0,0,0,.17.72,1.79,1.79,0,0,0,.57.56,9,9,0,0,0,1.4.69,8.1,8.1,0,0,1,1.68.92,2.72,2.72,0,0,1,.78,1A2.92,2.92,0,0,1,435.48,71.15Z"/><path class="cls-1" d="M440.68,74.2a3.72,3.72,0,0,1-2.87-1.1,4.26,4.26,0,0,1-1-3,4.65,4.65,0,0,1,1-3.11,3.27,3.27,0,0,1,2.64-1.14,3.21,3.21,0,0,1,2.46,1,3.82,3.82,0,0,1,.9,2.69v.92h-5.24a2.74,2.74,0,0,0,.62,1.82,2.13,2.13,0,0,0,1.64.63,5.91,5.91,0,0,0,1.3-.13,6.65,6.65,0,0,0,1.29-.45v1.39a4.94,4.94,0,0,1-1.24.43A7.53,7.53,0,0,1,440.68,74.2Zm-.31-7.09a1.69,1.69,0,0,0-1.28.52,2.54,2.54,0,0,0-.57,1.52h3.57a2.3,2.3,0,0,0-.47-1.52A1.59,1.59,0,0,0,440.37,67.11Z"/><path class="cls-1" d="M449.46,65.81a3.83,3.83,0,0,1,.83.07l-.16,1.61a3.06,3.06,0,0,0-.74-.09,2.12,2.12,0,0,0-1.63.67,2.51,2.51,0,0,0-.62,1.75v4.24h-1.67V66h1.31l.22,1.43h.09a3.2,3.2,0,0,1,1-1.16A2.37,2.37,0,0,1,449.46,65.81Z"/><path class="cls-1" d="M454,74.06,451,66h1.76l1.6,4.71a9.52,9.52,0,0,1,.5,1.91h.06a13.52,13.52,0,0,1,.49-1.91L457,66h1.78l-3,8.1Z"/><path class="cls-1" d="M463.1,74.2a3.73,3.73,0,0,1-2.87-1.1,4.3,4.3,0,0,1-1-3,4.65,4.65,0,0,1,1-3.11,3.27,3.27,0,0,1,2.64-1.14,3.21,3.21,0,0,1,2.45,1,3.82,3.82,0,0,1,.91,2.69v.92h-5.24a2.69,2.69,0,0,0,.62,1.82,2.12,2.12,0,0,0,1.64.63,6,6,0,0,0,1.3-.13,6.65,6.65,0,0,0,1.29-.45v1.39a4.94,4.94,0,0,1-1.24.43A7.64,7.64,0,0,1,463.1,74.2Zm-.3-7.09a1.69,1.69,0,0,0-1.28.52,2.54,2.54,0,0,0-.57,1.52h3.57a2.3,2.3,0,0,0-.47-1.52A1.61,1.61,0,0,0,462.8,67.11Z"/><path class="cls-1" d="M471.89,65.81a3.89,3.89,0,0,1,.83.07l-.17,1.61a2.92,2.92,0,0,0-.73-.09,2.12,2.12,0,0,0-1.63.67,2.51,2.51,0,0,0-.62,1.75v4.24H467.9V66h1.31l.22,1.43h.08a3.2,3.2,0,0,1,1-1.16A2.4,2.4,0,0,1,471.89,65.81Z"/><path class="cls-1" d="M486,74.06h-1.7V69.23h-4.79v4.83h-1.7V63.35h1.7v4.38h4.79V63.35H486Z"/><path class="cls-1" d="M492.27,74.06h-1.7V64.85h-3.05v-1.5h7.8v1.5h-3.05Z"/><path class="cls-1" d="M501,74.06h-1.69V64.85h-3.06v-1.5H504v1.5H501Z"/><path class="cls-1" d="M512.41,66.59a3.19,3.19,0,0,1-1.07,2.57,4.62,4.62,0,0,1-3,.89h-1.08v4h-1.7V63.35h3a4.42,4.42,0,0,1,2.92.82A3,3,0,0,1,512.41,66.59Zm-5.18,2h.9a3.19,3.19,0,0,0,1.92-.47,1.72,1.72,0,0,0,.61-1.47,1.66,1.66,0,0,0-.55-1.37,2.64,2.64,0,0,0-1.7-.46h-1.18Z"/><path class="cls-1" d="M521.78,65.81a3.89,3.89,0,0,1,.83.07l-.16,1.61a3.06,3.06,0,0,0-.74-.09,2.12,2.12,0,0,0-1.63.67,2.51,2.51,0,0,0-.62,1.75v4.24h-1.67V66h1.31l.22,1.43h.09a3.2,3.2,0,0,1,1-1.16A2.37,2.37,0,0,1,521.78,65.81Z"/><path class="cls-1" d="M527.26,74.2a3.69,3.69,0,0,1-2.86-1.1,4.26,4.26,0,0,1-1-3,4.65,4.65,0,0,1,1-3.11A3.27,3.27,0,0,1,527,65.81a3.21,3.21,0,0,1,2.45,1,3.78,3.78,0,0,1,.91,2.69v.92h-5.24a2.69,2.69,0,0,0,.62,1.82,2.12,2.12,0,0,0,1.64.63,6,6,0,0,0,1.3-.13,6.65,6.65,0,0,0,1.29-.45v1.39a4.94,4.94,0,0,1-1.24.43A7.64,7.64,0,0,1,527.26,74.2Zm-.3-7.09a1.69,1.69,0,0,0-1.28.52,2.54,2.54,0,0,0-.57,1.52h3.57a2.3,2.3,0,0,0-.47-1.52A1.61,1.61,0,0,0,527,67.11Z"/><path class="cls-1" d="M537.39,71.75a2.14,2.14,0,0,1-.84,1.82,3.94,3.94,0,0,1-2.4.63,5.53,5.53,0,0,1-2.53-.49V72.23a6.08,6.08,0,0,0,2.58.66c1,0,1.54-.32,1.54-1a.76.76,0,0,0-.17-.52A2.18,2.18,0,0,0,535,71a9.75,9.75,0,0,0-1.08-.5,5,5,0,0,1-1.84-1.08,2,2,0,0,1-.48-1.41,1.86,1.86,0,0,1,.81-1.61,3.75,3.75,0,0,1,2.22-.58,6.07,6.07,0,0,1,2.62.58l-.54,1.29a5.71,5.71,0,0,0-2.14-.54q-1.32,0-1.32.78a.77.77,0,0,0,.34.64,7.33,7.33,0,0,0,1.5.73,6.56,6.56,0,0,1,1.42.71,2.06,2.06,0,0,1,.65.74A2.25,2.25,0,0,1,537.39,71.75Z"/><path class="cls-1" d="M543,74.2a2.69,2.69,0,0,1-2.31-1.1h-.1c.06.68.1,1.1.1,1.24v3.32H539V66h1.34q.06.23.24,1.08h.09A2.59,2.59,0,0,1,543,65.81a2.71,2.71,0,0,1,2.29,1.1,5,5,0,0,1,.82,3.08,5.1,5.1,0,0,1-.83,3.1A2.74,2.74,0,0,1,543,74.2Zm-.4-7a1.72,1.72,0,0,0-1.46.6,3.23,3.23,0,0,0-.45,1.92V70a3.89,3.89,0,0,0,.45,2.14,1.65,1.65,0,0,0,1.48.67,1.5,1.5,0,0,0,1.34-.74,3.86,3.86,0,0,0,.47-2.08,3.71,3.71,0,0,0-.47-2.06A1.52,1.52,0,0,0,542.6,67.22Z"/><path class="cls-1" d="M554.94,70a4.49,4.49,0,0,1-1,3.1,3.49,3.49,0,0,1-2.75,1.11,3.73,3.73,0,0,1-2-.51,3.4,3.4,0,0,1-1.3-1.47A5.19,5.19,0,0,1,547.5,70a4.47,4.47,0,0,1,1-3.07,3.49,3.49,0,0,1,2.76-1.11,3.42,3.42,0,0,1,2.7,1.13A4.43,4.43,0,0,1,554.94,70Zm-5.72,0c0,1.87.67,2.81,2,2.81s2-.94,2-2.81-.67-2.77-2-2.77a1.71,1.71,0,0,0-1.53.71A3.81,3.81,0,0,0,549.22,70Z"/><path class="cls-1" d="M563.57,74.06h-1.68v-5a2.17,2.17,0,0,0-.37-1.4,1.38,1.38,0,0,0-1.16-.46,1.83,1.83,0,0,0-1.55.64,3.7,3.7,0,0,0-.49,2.16v4h-1.67V66H558L558.2,67h.08a2.31,2.31,0,0,1,1-.89,3.31,3.31,0,0,1,1.45-.32c1.88,0,2.83,1,2.83,3Z"/><path class="cls-1" d="M571,71.75a2.14,2.14,0,0,1-.84,1.82,3.94,3.94,0,0,1-2.4.63,5.49,5.49,0,0,1-2.52-.49V72.23a6,6,0,0,0,2.58.66c1,0,1.54-.32,1.54-1a.81.81,0,0,0-.17-.52,2.18,2.18,0,0,0-.56-.42,9.21,9.21,0,0,0-1.09-.5,4.92,4.92,0,0,1-1.83-1.08,2,2,0,0,1-.48-1.41,1.86,1.86,0,0,1,.81-1.61,3.71,3.71,0,0,1,2.21-.58,6,6,0,0,1,2.62.58l-.54,1.29a5.67,5.67,0,0,0-2.13-.54c-.89,0-1.33.26-1.33.78a.78.78,0,0,0,.35.64,7.33,7.33,0,0,0,1.5.73,6.81,6.81,0,0,1,1.42.71,2.06,2.06,0,0,1,.65.74A2.25,2.25,0,0,1,571,71.75Z"/><path class="cls-1" d="M576.12,74.2a3.73,3.73,0,0,1-2.87-1.1,4.26,4.26,0,0,1-1-3,4.65,4.65,0,0,1,1-3.11,3.6,3.6,0,0,1,5.09-.17,3.82,3.82,0,0,1,.9,2.69v.92h-5.23a2.69,2.69,0,0,0,.62,1.82,2.1,2.1,0,0,0,1.64.63,5.88,5.88,0,0,0,1.29-.13,6.65,6.65,0,0,0,1.29-.45v1.39a5,5,0,0,1-1.23.43A7.71,7.71,0,0,1,576.12,74.2Zm-.31-7.09a1.66,1.66,0,0,0-1.27.52,2.54,2.54,0,0,0-.57,1.52h3.56a2.25,2.25,0,0,0-.47-1.52A1.59,1.59,0,0,0,575.81,67.11Z"/><line class="cls-3" x1="410.52" y1="29.76" x2="584.2" y2="29.76"/><polygon class="cls-1" points="580.16 33.2 583.6 29.76 580.16 26.32 583.08 26.32 586.52 29.76 583.08 33.2 580.16 33.2"/><line class="cls-3" x1="412.83" y1="48.09" x2="586.52" y2="48.09"/><polygon class="cls-1" points="416.87 51.53 413.43 48.09 416.87 44.66 413.95 44.66 410.52 48.09 413.95 51.53 416.87 51.53"/><path class="cls-4" d="M330.6,61.26q0,4.29,2.86,6.24c1.9,1.29,4.7,2,8.38,2v5.91q-9.29-.09-14.37-3.67a11.63,11.63,0,0,1-5.09-10.08V48.9c0-2.93-1-5-3.08-6.27s-5-1.87-8.94-1.87V34.81c4.23-.06,7.3-.73,9.19-2a6.74,6.74,0,0,0,2.83-6V13.89a11.65,11.65,0,0,1,5.28-10.17Q332.94.09,341.84.1V6q-11.23.25-11.24,8.39V26.79q0,9.08-10.9,10.72V38q10.89,1.65,10.9,10.72Z"/><path class="cls-4" d="M371.52,48.73q0-9.07,10.91-10.72v-.5q-10.9-1.65-10.91-10.72V14.35q0-8.13-11.24-8.39V.1q8.89,0,14.18,3.62a11.65,11.65,0,0,1,5.28,10.17v12.9a6.74,6.74,0,0,0,2.83,6c1.89,1.3,5,2,9.19,2v5.95q-5.86,0-8.94,1.87c-2.06,1.25-3.08,3.34-3.08,6.27V61.68a11.63,11.63,0,0,1-5.09,10.08q-5.08,3.58-14.37,3.67V69.52c3.68,0,6.48-.73,8.38-2s2.86-3.38,2.86-6.24Z"/><path class="cls-4" d="M353.61,22.21v7.68h-7V22.21Zm-7,31.62V51.56a3.66,3.66,0,0,0,3.52-3.36h-3.52V40.53h7v6.7A6.78,6.78,0,0,1,346.58,53.83Z"/><rect class="cls-5" x="602.96" y="22.21" width="95.35" height="34.47" rx="0.94" ry="0.94"/><line class="cls-5" x1="650.64" y1="33.48" x2="650.64" y2="45.42"/><line class="cls-5" x1="658.95" y1="33.48" x2="658.95" y2="45.42"/><line class="cls-5" x1="667.26" y1="33.48" x2="667.26" y2="45.42"/><line class="cls-5" x1="675.57" y1="33.48" x2="675.57" y2="45.42"/><line class="cls-5" x1="617.39" y1="33.48" x2="617.39" y2="45.42"/><line class="cls-5" x1="625.7" y1="33.48" x2="625.7" y2="45.42"/><line class="cls-5" x1="634.01" y1="33.48" x2="634.01" y2="45.42"/><line class="cls-5" x1="642.32" y1="33.48" x2="642.32" y2="45.42"/><line class="cls-5" x1="683.88" y1="33.48" x2="683.88" y2="45.42"/><line class="cls-5" x1="617.91" y1="63.77" x2="683.37" y2="63.77"/><rect class="cls-6" x="0.99" y="9.54" width="83.19" height="67.26"/><g id="icons"><path class="cls-1" d="M84.45,9.45a3.56,3.56,0,0,0-2.48-1H3.63A3.58,3.58,0,0,0,.1,11.94V74.16a3.55,3.55,0,0,0,3.52,3.53H82a3.57,3.57,0,0,0,3.53-3.53V11.94A3.58,3.58,0,0,0,84.45,9.45ZM82.09,74.16a.22.22,0,0,1-.16.16H3.6a.25.25,0,0,1-.17-.16v-53H82.08ZM80.63,14.74a2,2,0,0,1-2,2h0l-55.09-.07a2,2,0,0,1,0-4H78.71a2,2,0,0,1,2,2v.09Zm-63-.09a1.37,1.37,0,1,1-1.38-1.35h0a1.37,1.37,0,0,1,1.36,1.35Zm-4,0A1.35,1.35,0,1,1,12.3,13.3a1.34,1.34,0,0,1,1.35,1.35h0ZM8.32,13.3A1.35,1.35,0,1,1,7,14.65,1.36,1.36,0,0,1,8.32,13.3h0Z"/></g><g id="transparency_layer" data-name="transparency layer"><rect class="cls-7" x="37.93" y="29.15" width="36.41" height="2.48"/><rect class="cls-7" x="37.93" y="33.69" width="36.41" height="2.48"/><rect class="cls-7" x="37.93" y="38.23" width="36.41" height="2.48"/><rect class="cls-7" x="37.93" y="42.77" width="30.45" height="2.48"/><rect class="cls-7" x="37.93" y="47.31" width="21.71" height="2.48"/><rect class="cls-7" x="10.06" y="53.23" width="22.78" height="1.44"/><rect class="cls-7" x="10.06" y="55.54" width="22.78" height="1.44"/><rect class="cls-7" x="10.06" y="57.87" width="22.78" height="1.44"/><rect class="cls-7" x="10.06" y="60.2" width="22.78" height="1.44"/><rect class="cls-7" x="10.06" y="29.15" width="22.91" height="20.87"/></g></g></svg>